<?xml version="1.0" encoding="UTF-8" standalone="no"?>
<svg width="286px" height="107px" viewBox="0 0 286 107" version="1.1" xmlns="http://www.w3.org/2000/svg" xmlns:xlink="http://www.w3.org/1999/xlink" xmlns:sketch="http://www.bohemiancoding.com/sketch/ns">
    <!-- Generator: Sketch 3.3.3 (12072) - http://www.bohemiancoding.com/sketch -->
    <title>logo</title>
    <desc>Created with Sketch.</desc>
    <defs></defs>
    <g id="Page-1" stroke="none" stroke-width="1" fill="none" fill-rule="evenodd" sketch:type="MSPage">
        <g id="logo" sketch:type="MSLayerGroup" transform="translate(0.000000, -1.000000)">
            <path d="M184.8,47.1 C197.3,51 196.7,61.1 200.4,60.2 C204.2,59.3 202.6,41.4 181.5,33.1 C164.7,26.5 146,32.3 138.9,48 C135.6,55.2 138.4,61.8 144.9,60.8 C151.4,60 166.4,41.2 184.8,47.1 Z M141.2,37.1 C134.9,45.5 123.3,28.1 125.5,25.3 C127.7,22.1 148.3,27.6 141.2,37.1 Z M155.2,28.1 C143.3,32.3 143.1,7.1 147.2,5.7 C151.6,4.1 168.7,23.2 155.2,28.1 Z M191.2,33.9 C181.6,27 201.2,13.7 204.3,16 C207.9,18.6 202.1,41.8 191.2,33.9 Z M203.3,47 C200.2,38.1 218.9,38.2 219.9,41.1 C221.2,44.5 206.9,57.2 203.3,47 Z M172.1,26 C158.7,23.2 173,0.1 177.4,1 C182.5,2.2 187.3,29.3 172.1,26 Z" id="Shape" fill="#FFF64A" sketch:type="MSShapeGroup"></path>
            <path d="M34.9,56.2 L42.3,61.5 C41.8,62.4 40.9,62.7 39.2,62.7 L0.3,62.7 L-5.68434189e-14,61.4 L31,61.4 L34.9,56.2 L34.9,56.2 Z M50,47 L57.6,52.6 C57.2,53.1 56.2,53.7 54.9,53.9 L54.9,98.1 C54.9,102.9 53.5,106.2 44.5,106.9 C44.5,100.8 40.2,100.2 35.1,99.7 L35.1,98.8 L46.4,98.8 C47.5,98.8 47.8,98.6 47.8,97.8 L47.8,52.1 L2.4,52.1 L2,50.9 L47.2,50.9 L50,47 L50,47 Z M29.5,68.2 L36.9,73.4 C36.5,73.9 35.6,74.5 34.2,74.7 L34.2,94.8 C34.2,94.9 32.4,96.9 27.5,96.9 L27.5,90.9 L14.3,90.9 L14.3,96.8 C14.3,96.9 13.4,99.3 7.7,99.3 L7.7,68.9 L14.6,71.7 L26.9,71.7 L29.5,68.2 L29.5,68.2 Z M14.2,89.6 L27.4,89.6 L27.4,73.1 L14.2,73.1 L14.2,89.6 L14.2,89.6 Z" id="Shape" fill="#912200" sketch:type="MSShapeGroup"></path>
            <path d="M64.6,63.6 C73.5,64.1 76.4,67.4 76.4,70.2 C76.4,72.3 74.8,73.9 72.8,73.9 C71.9,73.9 71.1,73.6 70.2,72.8 C69.3,69.7 66.9,66.1 64.2,64.1 L64.6,63.6 L64.6,63.6 Z M68.8,87.9 C69.7,87.9 70,87.9 70.6,86.5 C71.7,84.8 72,84 84.8,56 L85.9,56.2 C83.1,64.8 77.9,80.4 76.9,84 C76.4,86.3 75.8,88.7 75.8,90.3 C75.9,93.6 78.2,95.9 78.2,101 C78.2,106.8 73.9,106.9 73.1,106.9 C71.7,106.9 70.3,105.9 69.8,103.5 C70.2,100.8 70.5,98.4 70.5,96.2 C70.5,90.1 69.2,89.1 65.7,89 L65.7,87.7 C68.1,87.9 68.8,87.8 68.8,87.9 L68.8,87.9 L68.8,87.9 Z M67.8,46.8 C77.2,47.3 80.3,50.8 80.3,53.7 C80.3,55.8 78.7,57.6 76.6,57.6 C75.7,57.6 74.9,57.3 74,56.5 C72.9,53.1 70.2,49.3 67.4,47.2 L67.8,46.8 L67.8,46.8 Z M118.6,70.6 L125.8,76 C125.3,76.9 124.4,77.2 122.7,77.2 L99.8,77.2 L106.9,79.6 C106.7,80.5 106,80.9 104.3,80.8 C101,86.3 97.2,92 93.4,96.3 C99.2,96.1 106.3,95.8 113.8,95.4 C112.4,92.3 110.7,89.3 108.8,87 L109.3,86.6 C120.2,91.2 123.6,97.1 123.6,101.3 C123.6,104.3 121.8,106.5 119.5,106.5 C118.4,106.5 117.3,106 116.2,105 C116,102.6 115.3,99.9 114.4,97.2 C108.3,99.2 100,101.3 88.1,104.3 C87.7,105.2 86.9,105.6 86.1,105.7 L82.1,96.7 C84.2,96.7 87.2,96.6 90.9,96.5 C92.7,91.4 94.9,83.9 96.5,77.3 L82.3,77.3 L81.9,76 L99.3,76 L99.3,61 L86.4,61 L86.1,59.7 L99.3,59.7 L99.3,45.6 L109.3,46.6 C109.2,47.5 108.5,48 106.6,48.3 L106.6,59.7 L112.1,59.7 L115.8,54.6 L122.9,59.9 C122.4,60.8 121.5,61.1 119.8,61.1 L106.7,61.1 L106.7,76.1 L114.7,76.1 L118.6,70.6 L118.6,70.6 Z" id="Shape" fill="#912200" sketch:type="MSShapeGroup"></path>
            <path d="M143.1,64.7 L147.6,69.4 C147.3,69.8 146.7,69.9 145.6,69.9 C144.2,72.5 141.4,77.3 139.5,80.1 C144.2,83.4 146.3,86.6 146.3,90.4 C146.3,94.7 144.7,97.5 139.8,97.8 C139.8,94.9 139,94.1 137.2,93.9 L137.2,93.2 L139.9,93.2 C140.7,93.2 141.7,93.2 141.7,89.9 C141.7,86.5 140.8,83.2 138.6,80 C139.3,77.2 140.3,71.5 141,68.2 L136.7,68.2 L136.7,105.4 C136.7,105.7 135.3,106.9 133,106.9 L132.1,106.9 L132.1,65.3 L137.2,67.3 L140.6,67.3 L143.1,64.7 L143.1,64.7 Z M173.6,84.7 C173.3,85.2 172.6,85.6 171.4,85.6 L156.4,85.6 C155.9,87.2 155.1,88.7 154.1,90.2 L166.5,90.2 L168.5,87.9 L173.1,91.4 C172.8,91.7 172.2,92.1 171.4,92.2 C171.1,100.8 170.4,104.6 168.6,105.9 C167.3,106.9 166.1,107.2 163.8,107.3 C163.8,104.7 163.3,103.9 160.4,103.3 L160.4,102.6 L164.2,102.6 C164.9,102.6 165.2,102.6 165.5,102.3 C166.3,101.6 166.7,98.2 167,91.1 L165.7,91.1 C163.6,97.7 159.5,103.2 153.2,107.1 L152.8,106.4 C156.9,102.4 159.6,97 161.1,91.1 L159.6,91.1 C157,97.1 152.2,102.1 146,105.5 L145.5,104.7 C149.7,101.1 153.1,96 155.2,90.9 L153.7,90.9 C151.3,94.4 148.1,97.3 143.8,99.7 L143.4,98.9 C147.4,95.4 150.1,90.5 151.7,85.4 L146.3,85.4 L146.1,84.5 L166.7,84.5 L169.2,81.1 L173.6,84.7 L173.6,84.7 Z M153.4,79.9 L153.4,81.3 C153.4,81.6 152,82.6 149.8,82.6 L149,82.6 L149,65.3 L153.8,67.3 L163.4,67.3 L165.4,64.8 L170.1,68.3 C169.8,68.6 169.3,69 168.4,69.1 L168.4,81.3 C168.4,81.5 167,82.4 164.7,82.4 L163.8,82.4 L163.8,80 L153.5,80 L153.5,79.9 L153.4,79.9 Z M163.9,68.1 L153.5,68.1 L153.5,73.1 L163.9,73.1 L163.9,68.1 L163.9,68.1 Z M153.4,79 L163.8,79 L163.8,74 L153.4,74 L153.4,79 L153.4,79 Z" id="Shape" fill="#912200" sketch:type="MSShapeGroup"></path>
            <path d="M217.1,93.9 L217.1,101.3 C218.8,102 219.1,102.3 219.1,102.9 C219.1,104.7 217.8,105.8 212.9,105.8 L206.2,105.8 C201.1,105.8 200,104.8 200,100.2 L200,83 L195,83 C194.8,83.5 194.3,83.7 193.3,83.8 C192.5,93.9 189.3,102.7 176.7,106.8 L176.4,106.1 C186,101.4 188,92.5 188.2,83 L176.6,83 L176.4,82.1 L195,82.1 L195,64.1 L201.9,64.8 C201.9,65.5 201.4,65.8 199.9,66 L199.9,82.2 L210.8,82.2 L213.6,78.5 L218.9,82.2 C218.6,82.7 218,83.1 216.6,83.1 L206.2,83.1 C206,83.4 205.7,83.5 204.7,83.8 L204.7,100.4 C204.7,101.7 204.8,101.8 206.1,101.8 L212.6,101.8 C213.6,101.8 213.9,101.7 214.3,100.9 C214.7,100 215.5,97.4 216.5,94 L217.1,93.9 L217.1,93.9 Z M180.6,67.1 C187.9,69.6 190.2,73.3 190.2,76 C190.2,78 188.9,79.5 187.4,79.5 C186.6,79.5 185.9,79.2 185.1,78.4 C184.9,74.7 182.8,70 180.2,67.3 L180.6,67.1 L180.6,67.1 Z M203.9,79.7 C205.6,76.7 208.1,71.4 209.9,66.7 L216.6,69.7 C216.4,70.2 215.8,70.6 214.6,70.4 C211.5,74.1 207.8,77.8 204.4,80.1 L203.9,79.7 L203.9,79.7 Z" id="Shape" fill="#912200" sketch:type="MSShapeGroup"></path>
            <path d="M249.3,57.1 C249.1,57.6 248.5,58 247.7,58 C247.4,58 247,57.9 246.6,57.9 C243.5,62.7 238.3,69.1 233.4,74.4 C236.2,74.3 239.5,74.3 242.7,74.2 C242.2,72.5 241.3,70.8 240.4,69.5 L241.1,69.1 C247.8,71.8 250,75.2 250,77.8 C250,80 248.4,81.6 246.6,81.6 C245.7,81.6 244.6,81.2 243.9,80.1 C243.9,78.8 243.7,77.3 243.2,75.8 L240.4,76.7 L240.4,105.3 C240.4,105.7 238.3,107.1 235.2,107.1 L234,107.1 L234,86.4 C233.7,86.5 233.2,86.6 232.6,86.6 C230.9,92.8 228.1,98.5 224.7,102 L223.7,101.5 C225.4,97.4 226.6,90.3 227.1,83.7 L233.9,85.1 L233.9,78.4 C232.1,78.9 230.1,79.5 227.9,79.9 C227.5,80.8 226.8,81.2 226.1,81.3 L223.8,74.6 C225.4,74.6 227.9,74.6 230.9,74.5 C234.4,68 238.2,59.7 240.6,53.8 L249.3,57.1 L249.3,57.1 Z M224.4,56.7 C226.6,57.1 228.4,57.8 229.7,58.4 C230.9,54.9 232.2,50 233.2,45.7 L242.1,48.7 C241.9,49.5 241.2,49.9 239.6,49.9 C237.2,53.3 234.3,56.8 231.6,59.5 C233.7,60.9 234.4,62.5 234.4,63.8 C234.4,65.8 232.9,67.3 231.3,67.3 C230.4,67.3 229.6,66.9 228.8,66.1 C228.4,63.1 226.3,59.4 224.1,57.2 L224.4,56.7 L224.4,56.7 Z M242,83.6 C248,86.7 249.9,90.2 249.9,92.8 C249.9,95.2 248.2,96.9 246.4,96.9 C245.5,96.9 244.6,96.5 243.8,95.4 C244,91.8 242.9,86.8 241.3,83.9 L242,83.6 L242,83.6 Z M278.2,47 L285.1,52.2 C284.7,52.7 283.8,53.3 282.5,53.5 L282.5,98.7 C282.5,103.2 281.4,106.3 274.1,107 C274.1,102 272.6,101 268,100.5 L268,99.6 L275.1,99.6 C275.9,99.6 276.1,99.4 276.1,98.6 L276.1,78.6 C275.7,78.7 275.2,78.7 274.6,78.7 L265,78.7 L265,88.9 C265,90.4 265,90.6 265.9,90.6 L271,90.6 C271.2,90.6 272.5,90.4 272.8,90.4 C275,91.3 275,91.8 275,92.5 C275,94.6 273.5,95.3 269.8,95.3 L265.5,95.3 C260.2,95.3 259.6,94.5 259.6,88.9 L259.6,78.7 L256.2,78.7 L256.2,104.3 C256.2,104.4 255.7,106.8 250,106.8 L250,47.6 L256.6,50.5 L275.4,50.5 L278.2,47 L278.2,47 Z M256.4,77.4 L263.2,77.4 L263.2,68.8 L256.8,68.8 L256.5,67.5 L270.3,67.5 L272.6,64.5 L276.3,67.2 L276.3,57.1 C276.1,57.4 275.6,57.6 274.8,57.5 C273.4,59.9 270.8,63.9 268.4,66.6 L267.6,66.4 C268.5,62.8 269.7,57.4 270,54.7 L276.3,56.8 L276.3,51.8 L256.4,51.8 L256.4,77.4 L256.4,77.4 Z M258.3,55.1 C263.3,57.8 264.9,60.9 264.9,63 C264.9,65.1 263.6,66.4 262.2,66.4 C261.4,66.4 260.7,66 260.1,65.2 C260.2,62.2 259,57.9 257.6,55.4 L258.3,55.1 L258.3,55.1 Z M272.9,74.1 L276.3,76.6 L276.3,68.6 C275.9,68.8 275.2,68.9 274.2,68.9 L270,68.9 C269.8,69.1 269.2,69.2 268.6,69.3 L268.6,77.4 L270.4,77.4 L272.9,74.1 L272.9,74.1 Z" id="Shape" fill="#912200" sketch:type="MSShapeGroup"></path>
        </g>
    </g>
</svg>