<?xml version="1.0" encoding="UTF-8"?>
<svg width="24px" height="24px" viewBox="0 0 24 24" version="1.1" xmlns="http://www.w3.org/2000/svg" xmlns:xlink="http://www.w3.org/1999/xlink">
    <!-- Generator: Sketch 40.3 (33839) - http://www.bohemiancoding.com/sketch -->
    <title>search</title>
    <desc>Created with Sketch.</desc>
    <defs></defs>
    <g id="Components" stroke="none" stroke-width="1" fill="none" fill-rule="evenodd">
        <g id="search" fill="#B7B6B6">
            <path d="M9.96246649,13.6863271 C11.1063514,13.6863271 12.078638,13.2859733 12.8793566,12.4852547 C13.6800752,11.6845361 14.080429,10.7122495 14.080429,9.56836461 C14.080429,8.42447974 13.6800752,7.45219312 12.8793566,6.65147453 C12.078638,5.85075595 11.1063514,5.45040214 9.96246649,5.45040214 C8.81858162,5.45040214 7.84629499,5.85075595 7.04557641,6.65147453 C6.24485755,7.45219312 5.84450402,8.42447974 5.84450402,9.56836461 C5.84450402,10.7122495 6.24485755,11.6845361 7.04557641,12.4852547 C7.84629499,13.2859733 8.81858162,13.6863271 9.96246649,13.6863271 L9.96246649,13.6863271 Z M15.4530831,13.6863271 L20,18.233244 L18.6273458,19.6058981 L14.080429,15.0589812 L14.080429,14.3297587 L13.8230563,14.0723861 C12.7363672,15.0160913 11.4495149,15.4879357 9.96246649,15.4879357 C8.30383357,15.4879357 6.89544922,14.9160028 5.73726542,13.772118 C4.57908271,12.6282331 4,11.2269975 4,9.56836461 C4,7.90973169 4.57908271,6.50134735 5.73726542,5.34316491 C6.89544922,4.18497973 8.30383357,3.60589812 9.96246649,3.60589812 C11.6210994,3.60589812 13.022335,4.18497973 14.1662198,5.34316491 C15.3101047,6.50134735 15.8820375,7.90973169 15.8820375,9.56836461 C15.8820375,11.055413 15.4101932,12.3422653 14.4664879,13.4289544 L14.7238606,13.6863271 L15.4530831,13.6863271 L15.4530831,13.6863271 Z"></path>
        </g>
    </g>
</svg>