<?xml version="1.0" encoding="UTF-8" standalone="no"?>
<svg width="104px" height="40px" viewBox="0 0 104 40" version="1.1" xmlns="http://www.w3.org/2000/svg" xmlns:xlink="http://www.w3.org/1999/xlink">
    <!-- Generator: Sketch 39.1 (31720) - http://www.bohemiancoding.com/sketch -->
    <title>Logo/white</title>
    <desc>Created with Sketch.</desc>
    <defs></defs>
    <g id="Symbols" stroke="none" stroke-width="1" fill="none" fill-rule="evenodd">
        <g id="App-bar/transparent" transform="translate(-124.000000, -32.000000)" fill="#FFFFFF">
            <g id="Logo/white/collapse" transform="translate(124.000000, 32.000000)">
                <path d="M67.269703,16.7135846 C71.7925559,18.1267469 71.575459,21.7864751 72.9142235,21.4603607 C74.2891708,21.1342463 73.7102456,14.6481934 66.0756698,11.640694 C59.9969555,9.24918844 53.2307675,11.3508145 50.661787,17.039699 C49.4677539,19.6486141 50.4808729,22.0401197 52.8327564,21.6777703 C55.18464,21.3878909 60.6120635,14.5757235 67.269703,16.7135846 Z M51.493992,13.0900913 C49.2144741,16.1338256 45.0172666,9.82894736 45.8132887,8.81436925 C46.6093108,7.65485141 54.0629724,9.6477727 51.493992,13.0900913 Z M56.5595873,9.82894736 C52.2538313,11.3508145 52.1814656,2.21961151 53.6649614,1.71232246 C55.2570056,1.13256354 61.4442684,8.05343567 56.5595873,9.82894736 Z M69.5854037,11.9305735 C66.1118527,9.43036311 73.2036861,4.61111707 74.3253536,5.44452052 C75.6279352,6.38662877 73.5293315,14.7931331 69.5854037,11.9305735 Z M73.9635253,16.6773496 C72.8418578,13.4524406 79.6080458,13.4886756 79.969874,14.5394886 C80.4402507,15.7714763 75.266107,20.3733128 73.9635253,16.6773496 Z M62.6744844,9.06801378 C57.8259861,8.05343567 63.0001298,-0.316833769 64.5921741,0.00928062498 C66.4374981,0.444099816 68.1742736,10.2637666 62.6744844,9.06801378 Z" id="Shape"></path>
                <path d="M12.4642857,20.4779394 L15.1071429,22.3992368 C14.9285714,22.7254949 14.6071429,22.8342476 14,22.8342476 L0.107142857,22.8342476 L-2.04636304e-14,22.3629859 L11.0714286,22.3629859 L12.4642857,20.4779394 L12.4642857,20.4779394 Z M17.8571429,17.1428571 L20.5714286,19.1729072 C20.4285714,19.3541617 20.0714286,19.5716671 19.6071429,19.6441689 L19.6071429,35.6670642 C19.6071429,37.4071071 19.1071429,38.6033866 15.8928571,38.8571429 C15.8928571,36.6458383 14.3571429,36.4283329 12.5357143,36.2470785 L12.5357143,35.9208204 L16.5714286,35.9208204 C16.9642857,35.9208204 17.0714286,35.8483186 17.0714286,35.5583115 L17.0714286,18.9916528 L0.857142857,18.9916528 L0.714285714,18.556642 L16.8571429,18.556642 L17.8571429,17.1428571 L17.8571429,17.1428571 Z M10.5357143,24.8280467 L13.1785714,26.7130933 C13.0357143,26.8943477 12.7142857,27.1118531 12.2142857,27.1843549 L12.2142857,34.4707846 C12.2142857,34.5070355 11.5714286,35.2320534 9.82142857,35.2320534 L9.82142857,33.0569998 L5.10714286,33.0569998 L5.10714286,35.1958025 C5.10714286,35.2320534 4.78571429,36.1020749 2.75,36.1020749 L2.75,25.081803 L5.21428571,26.096828 L9.60714286,26.096828 L10.5357143,24.8280467 L10.5357143,24.8280467 Z M5.07142857,32.5857381 L9.78571429,32.5857381 L9.78571429,26.6043406 L5.07142857,26.6043406 L5.07142857,32.5857381 L5.07142857,32.5857381 Z" id="Shape"></path>
                <path d="M24.148423,23.8545794 C27.4508349,24.0410161 28.5269017,25.2714985 28.5269017,26.3155442 C28.5269017,27.0985784 27.9332096,27.6951759 27.1910946,27.6951759 C26.8571429,27.6951759 26.5602968,27.5833139 26.2263451,27.2850151 C25.8923933,26.1291074 25.0018553,24.786763 24,24.0410161 L24.148423,23.8545794 L24.148423,23.8545794 Z M25.7068646,32.9154043 C26.0408163,32.9154043 26.1521336,32.9154043 26.3747681,32.3933815 C26.7829314,31.7594966 26.8942486,31.4611979 31.6437848,21.0207411 L32.0519481,21.0953158 C31.012987,24.3020275 29.0834879,30.1188534 28.7124304,31.4611979 C28.5269017,32.3188068 28.3042672,33.2137031 28.3042672,33.8103006 C28.3413729,35.040783 29.1948052,35.898392 29.1948052,37.8000466 C29.1948052,39.9627127 27.5992579,40 27.3024119,40 C26.7829314,40 26.2634508,39.6271265 26.0779221,38.7322302 C26.2263451,37.7254719 26.3376623,36.8305756 26.3376623,36.010254 C26.3376623,33.7357259 25.8552876,33.3628525 24.5565863,33.3255651 L24.5565863,32.8408296 C25.4471243,32.9154043 25.7068646,32.878117 25.7068646,32.9154043 L25.7068646,32.9154043 L25.7068646,32.9154043 Z M25.3358071,17.5903053 C28.8237477,17.776742 29.974026,19.0817991 29.974026,20.1631321 C29.974026,20.9461664 29.380334,21.6173386 28.6011132,21.6173386 C28.2671614,21.6173386 27.9703154,21.5054766 27.6363636,21.2071778 C27.2282004,19.9394081 26.2263451,18.5224889 25.187384,17.7394547 L25.3358071,17.5903053 L25.3358071,17.5903053 Z M44.1855288,26.4646935 L46.8571429,28.4782102 C46.6716141,28.8137963 46.3376623,28.9256584 45.7068646,28.9256584 L37.2096475,28.9256584 L39.8441558,29.8205546 C39.7699443,30.1561408 39.5102041,30.3052901 38.8794063,30.2680028 C37.6549165,32.3188068 36.244898,34.4441855 34.8348794,36.0475414 C36.987013,35.9729667 39.6215213,35.8611046 42.4044527,35.7119553 C41.8849722,34.5560475 41.2541744,33.4374272 40.5491651,32.5798182 L40.7346939,32.4306688 C44.7792208,34.1458867 46.0408163,36.3458401 46.0408163,37.9119086 C46.0408163,39.030529 45.3729128,39.8508506 44.5194805,39.8508506 C44.1113173,39.8508506 43.703154,39.6644139 43.2949907,39.2915404 C43.2207792,38.3966441 42.961039,37.3898858 42.6270872,36.3831275 C40.3636364,37.1288744 37.283859,37.9119086 32.8682746,39.030529 C32.7198516,39.3661151 32.4230056,39.5152645 32.1261596,39.5525519 L30.6419295,36.1966907 C31.4211503,36.1966907 32.5343228,36.1594034 33.9072356,36.1221161 C34.5751391,34.2204614 35.3914657,31.4239105 35.9851577,28.9629457 L30.716141,28.9629457 L30.567718,28.4782102 L37.0241187,28.4782102 L37.0241187,22.8851084 L32.2374768,22.8851084 L32.1261596,22.4003729 L37.0241187,22.4003729 L37.0241187,17.1428571 L40.7346939,17.5157306 C40.6975881,17.8513167 40.4378479,18.0377534 39.7328386,18.1496155 L39.7328386,22.4003729 L41.7736549,22.4003729 L43.1465677,20.4987182 L45.7810761,22.4749476 C45.5955473,22.8105337 45.2615955,22.9223957 44.6307978,22.9223957 L39.7699443,22.9223957 L39.7699443,28.5154976 L42.7384045,28.5154976 L44.1855288,26.4646935 L44.1855288,26.4646935 Z" id="Shape"></path>
                <path d="M51.9380379,24 L53.5490534,25.6391683 C53.4416523,25.778672 53.2268503,25.813548 52.8330465,25.813548 C52.3318417,26.7203219 51.329432,28.3943662 50.6492255,29.370892 C52.3318417,30.5217975 53.0836489,31.637827 53.0836489,32.963112 C53.0836489,34.4627767 52.5108434,35.4393025 50.7566265,35.5439302 C50.7566265,34.5325285 50.4702238,34.2535211 49.8258176,34.1837693 L49.8258176,33.9396378 L50.7924269,33.9396378 C51.0788296,33.9396378 51.436833,33.9396378 51.436833,32.7887324 C51.436833,31.602951 51.1146299,30.4520456 50.3270224,29.3360161 C50.5776248,28.3594903 50.9356282,26.3715627 51.1862306,25.2206573 L49.6468158,25.2206573 L49.6468158,38.1945003 C49.6468158,38.2991281 49.145611,38.7176392 48.3222031,38.7176392 L48,38.7176392 L48,24.2092555 L49.8258176,24.906774 L51.0430293,24.906774 L51.9380379,24 L51.9380379,24 Z M62.8571429,30.9751844 C62.7497418,31.1495641 62.4991394,31.2890677 62.0695353,31.2890677 L56.6994836,31.2890677 C56.5204819,31.8470825 56.2340792,32.3702213 55.8760757,32.8933602 L60.3153184,32.8933602 L61.0313253,32.091214 L62.6781411,33.3118712 C62.5707401,33.416499 62.355938,33.5560027 62.0695353,33.5908786 C61.9621343,36.5902079 61.7115318,37.915493 61.0671256,38.3688799 C60.6017212,38.7176392 60.172117,38.8222669 59.3487091,38.8571429 C59.3487091,37.9503689 59.1697074,37.6713615 58.1314974,37.462106 L58.1314974,37.2179745 L59.4919105,37.2179745 C59.7425129,37.2179745 59.8499139,37.2179745 59.957315,37.1133467 C60.2437177,36.8692153 60.3869191,35.6834339 60.4943201,33.2072435 L60.0289157,33.2072435 C59.2771084,35.5090543 57.8092943,37.42723 55.5538726,38.787391 L55.4106713,38.5432596 C56.8784854,37.1482227 57.8450947,35.2649229 58.3820998,33.2072435 L57.8450947,33.2072435 C56.9142857,35.2997988 55.1958692,37.0435949 52.9762478,38.2293763 L52.7972461,37.9503689 C54.3008606,36.6948357 55.5180723,34.9161636 56.2698795,33.1374916 L55.7328744,33.1374916 C54.8736661,34.3581489 53.7280551,35.3695506 52.1886403,36.2065728 L52.0454389,35.9275654 C53.4774527,34.7069081 54.444062,32.9979879 55.0168675,31.2193159 L53.0836489,31.2193159 L53.0120482,30.9054326 L60.3869191,30.9054326 L61.2819277,29.7196512 L62.8571429,30.9751844 L62.8571429,30.9751844 Z M55.6254733,29.3011402 L55.6254733,29.7894031 C55.6254733,29.8940309 55.1242685,30.2427901 54.3366609,30.2427901 L54.0502582,30.2427901 L54.0502582,24.2092555 L55.7686747,24.906774 L59.2055077,24.906774 L59.9215146,24.0348759 L61.6041308,25.2555332 C61.4967298,25.360161 61.3177281,25.4996647 60.995525,25.5345406 L60.995525,29.7894031 C60.995525,29.8591549 60.4943201,30.1730382 59.6709122,30.1730382 L59.3487091,30.1730382 L59.3487091,29.3360161 L55.6612737,29.3360161 L55.6612737,29.3011402 L55.6254733,29.3011402 Z M59.3845095,25.1857814 L55.6612737,25.1857814 L55.6612737,26.9295775 L59.3845095,26.9295775 L59.3845095,25.1857814 L59.3845095,25.1857814 Z M55.6254733,28.9872569 L59.3487091,28.9872569 L59.3487091,27.2434608 L55.6254733,27.2434608 L55.6254733,28.9872569 L55.6254733,28.9872569 Z" id="Shape"></path>
                <path d="M78.1612579,34.3686852 L78.1612579,36.9434594 C78.7527601,37.1870191 78.8571429,37.2914018 78.8571429,37.5001673 C78.8571429,38.1264637 78.4048177,38.5092004 76.6998996,38.5092004 L74.3686852,38.5092004 C72.5941787,38.5092004 72.211442,38.1612579 72.211442,36.5607226 L72.211442,30.5761124 L70.4717297,30.5761124 C70.4021412,30.7500836 70.22817,30.8196721 69.8802275,30.8544664 C69.6018735,34.3686852 68.4884577,37.4305788 64.1043827,38.8571429 L64,38.6135831 C67.3402476,36.9782536 68.0361325,33.8815657 68.105721,30.5761124 L64.0695885,30.5761124 L64,30.2629642 L70.4717297,30.2629642 L70.4717297,24 L72.8725326,24.2435597 C72.8725326,24.4871194 72.6985614,24.5915022 72.1766477,24.6610907 L72.1766477,30.2977584 L75.9692205,30.2977584 L76.9434594,29.0103714 L78.7875544,30.2977584 C78.6831716,30.4717297 78.4744062,30.6109067 77.9872867,30.6109067 L74.3686852,30.6109067 C74.2990967,30.7152894 74.194714,30.7500836 73.8467715,30.8544664 L73.8467715,36.6303111 C73.8467715,37.0826363 73.8815657,37.1174306 74.3338909,37.1174306 L76.5955169,37.1174306 C76.9434594,37.1174306 77.0478421,37.0826363 77.1870191,36.8042824 C77.3261961,36.4911342 77.60455,35.5864838 77.9524925,34.4034794 L78.1612579,34.3686852 L78.1612579,34.3686852 Z M65.4613583,25.0438274 C68.0013382,25.9136835 68.8016059,27.2010706 68.8016059,28.1405152 C68.8016059,28.8364001 68.3492807,29.3583138 67.827367,29.3583138 C67.549013,29.3583138 67.3054533,29.2539311 67.0270994,28.9755771 C66.9575109,27.68819 66.2268317,26.0528605 65.3221813,25.1134159 L65.4613583,25.0438274 L65.4613583,25.0438274 Z M73.5684175,29.4279023 C74.1599197,28.3840749 75.0297758,26.5399799 75.6560723,24.9046504 L77.9872867,25.9484778 C77.9176982,26.122449 77.7089328,26.261626 77.2914018,26.1920375 C76.2127802,27.4794246 74.9253931,28.7668116 73.7423888,29.5670793 L73.5684175,29.4279023 L73.5684175,29.4279023 Z" id="Shape"></path>
                <path d="M90.6728711,21.3866915 C90.5984179,21.5728246 90.3750582,21.721731 90.0772452,21.721731 C89.9655654,21.721731 89.8166589,21.6845044 89.6677524,21.6845044 C88.5137273,23.471382 86.5779432,25.8538855 84.753839,27.8268962 C85.7961843,27.7896696 87.0246626,27.7896696 88.2159144,27.752443 C88.0297813,27.1195905 87.6947417,26.486738 87.3597022,26.002792 L87.6202885,25.8538855 C90.1144718,26.8590042 90.9334574,28.1247092 90.9334574,29.0926012 C90.9334574,29.9115868 90.3378315,30.5072127 89.6677524,30.5072127 C89.3327129,30.5072127 88.9232201,30.3583062 88.6626338,29.9488134 C88.6626338,29.4648674 88.5881805,28.9064681 88.4020475,28.3480689 L87.3597022,28.6831084 L87.3597022,39.3299209 C87.3597022,39.4788274 86.5779432,40 85.4239181,40 L84.9771987,40 L84.9771987,32.2940903 C84.8655188,32.3313169 84.6793858,32.3685435 84.4560261,32.3685435 C83.8231736,34.6765938 82.7808283,36.7985109 81.5151233,38.1014425 L81.1428571,37.9153094 C81.7757096,36.3890181 82.222429,33.7459283 82.4085621,31.2889716 L84.9399721,31.8101443 L84.9399721,29.3159609 C84.269893,29.502094 83.5253606,29.7254537 82.7063751,29.8743602 C82.5574686,30.2093997 82.2968823,30.3583062 82.036296,30.3955328 L81.1800838,27.9013495 C81.7757096,27.9013495 82.7063751,27.9013495 83.8231736,27.8641228 C85.1261052,25.4443927 86.5407166,22.3545835 87.4341554,20.1582131 L90.6728711,21.3866915 L90.6728711,21.3866915 Z M81.4034435,21.237785 C82.222429,21.3866915 82.8925081,21.6472778 83.3764542,21.8706375 C83.8231736,20.5677059 84.3071196,18.7436017 84.6793858,17.1428571 L87.9925547,18.2596557 C87.9181014,18.5574686 87.6575151,18.7063751 87.0618893,18.7063751 C86.1684504,19.97208 85.0888785,21.2750116 84.0837599,22.2801303 C84.8655188,22.8013029 85.1261052,23.3969288 85.1261052,23.8808748 C85.1261052,24.6254072 84.5677059,25.1838064 83.97208,25.1838064 C83.6370405,25.1838064 83.3392275,25.0349 83.0414146,24.737087 C82.8925081,23.6202885 82.1107492,22.2429037 81.2917636,21.4239181 L81.4034435,21.237785 L81.4034435,21.237785 Z M87.9553281,31.251745 C90.1889251,32.4057701 90.8962308,33.7087017 90.8962308,34.6765938 C90.8962308,35.5700326 90.2633783,36.2028851 89.5932992,36.2028851 C89.2582597,36.2028851 88.9232201,36.0539786 88.6254072,35.6444858 C88.6998604,34.3043276 88.2903676,32.4429967 87.6947417,31.3634248 L87.9553281,31.251745 L87.9553281,31.251745 Z M101.431363,17.6268032 L104,19.5625872 C103.851094,19.7487203 103.516054,19.97208 103.032108,20.0465333 L103.032108,36.8729642 C103.032108,38.5481619 102.622615,39.7021871 99.9050721,39.9627734 C99.9050721,38.1014425 99.3466729,37.7291764 97.6342485,37.5430433 L97.6342485,37.2080037 L100.277338,37.2080037 C100.575151,37.2080037 100.649604,37.1335505 100.649604,36.8357376 L100.649604,29.3904141 C100.500698,29.4276408 100.314565,29.4276408 100.091205,29.4276408 L96.51745,29.4276408 L96.51745,33.2247557 C96.51745,33.783155 96.51745,33.8576082 96.8524895,33.8576082 L98.751047,33.8576082 C98.8255002,33.8576082 99.3094463,33.783155 99.4211261,33.783155 C100.240112,34.1181945 100.240112,34.3043276 100.240112,34.5649139 C100.240112,35.3466729 99.6817124,35.6072592 98.3043276,35.6072592 L96.7035831,35.6072592 C94.7305724,35.6072592 94.5072127,35.3094463 94.5072127,33.2247557 L94.5072127,29.4276408 L93.2415077,29.4276408 L93.2415077,38.9576547 C93.2415077,38.9948813 93.0553746,39.8883201 90.9334574,39.8883201 L90.9334574,17.8501629 L93.3904141,18.9297348 L100.389018,18.9297348 L101.431363,17.6268032 L101.431363,17.6268032 Z M93.3159609,28.9436947 L95.8473709,28.9436947 L95.8473709,25.7422057 L93.4648674,25.7422057 L93.3531875,25.2582597 L98.4904607,25.2582597 L99.3466729,24.1414611 L100.724058,25.1465798 L100.724058,21.3866915 C100.649604,21.4983713 100.463471,21.5728246 100.165658,21.535598 C99.6444858,22.4290368 98.6765938,23.9181014 97.783155,24.9232201 L97.485342,24.8487669 C97.8203816,23.5086087 98.267101,21.4983713 98.3787808,20.4932527 L100.724058,21.2750116 L100.724058,19.4136808 L93.3159609,19.4136808 L93.3159609,28.9436947 L93.3159609,28.9436947 Z M94.0232666,20.6421591 C95.8845975,21.6472778 96.4802234,22.8013029 96.4802234,23.5830619 C96.4802234,24.3648208 95.9962773,24.8487669 95.4751047,24.8487669 C95.1772918,24.8487669 94.9167054,24.6998604 94.6933457,24.4020475 C94.7305724,23.285249 94.283853,21.6845044 93.7626803,20.753839 L94.0232666,20.6421591 L94.0232666,20.6421591 Z M99.4583527,27.7152164 L100.724058,28.6458818 L100.724058,25.6677524 C100.575151,25.7422057 100.314565,25.7794323 99.9422987,25.7794323 L98.3787808,25.7794323 C98.3043276,25.8538855 98.0809679,25.8911121 97.8576082,25.9283388 L97.8576082,28.9436947 L98.5276873,28.9436947 L99.4583527,27.7152164 L99.4583527,27.7152164 Z" id="Shape"></path>
            </g>
        </g>
    </g>
</svg>