<svg viewBox="0 0 286 107" xmlns="http://www.w3.org/2000/svg"><g fill="none" fill-rule="evenodd"><path d="M184.8 46.1c12.5 3.9 11.9 14 15.6 13.1 3.8-.9 2.2-18.8-18.9-27.1-16.8-6.6-35.5-.8-42.6 14.9-3.3 7.2-.5 13.8 6 12.8 6.5-.8 21.5-19.6 39.9-13.7zm-43.6-10c-6.3 8.4-17.9-9-15.7-11.8 2.2-3.2 22.8 2.3 15.7 11.8zm14-9c-11.9 4.2-12.1-21-8-22.4 4.4-1.6 21.5 17.5 8 22.4zm36 5.8c-9.6-6.9 10-20.2 13.1-17.9 3.6 2.6-2.2 25.8-13.1 17.9zM203.3 46c-3.1-8.9 15.6-8.8 16.6-5.9 1.3 3.4-13 16.1-16.6 5.9zm-31.2-21c-13.4-2.8.9-25.9 5.3-25 5.1 1.2 9.9 28.3-5.3 25z" fill="#FFF64A"/><path d="M34.9 55.2l7.4 5.3c-.5.9-1.4 1.2-3.1 1.2H.3L0 60.4h31l3.9-5.2zM50 46l7.6 5.6c-.4.5-1.4 1.1-2.7 1.3v44.2c0 4.8-1.4 8.1-10.4 8.8 0-6.1-4.3-6.7-9.4-7.2v-.9h11.3c1.1 0 1.4-.2 1.4-1V51.1H2.4L2 49.9h45.2L50 46zM29.5 67.2l7.4 5.2c-.4.5-1.3 1.1-2.7 1.3v20.1c0 .1-1.8 2.1-6.7 2.1v-6H14.3v5.9c0 .1-.9 2.5-6.6 2.5V67.9l6.9 2.8h12.3l2.6-3.5zM14.2 88.6h13.2V72.1H14.2v16.5zm50.4-26c8.9.5 11.8 3.8 11.8 6.6 0 2.1-1.6 3.7-3.6 3.7-.9 0-1.7-.3-2.6-1.1-.9-3.1-3.3-6.7-6-8.7l.4-.5zm4.2 24.3c.9 0 1.2 0 1.8-1.4C71.7 83.8 72 83 84.8 55l1.1.2c-2.8 8.6-8 24.2-9 27.8-.5 2.3-1.1 4.7-1.1 6.3.1 3.3 2.4 5.6 2.4 10.7 0 5.8-4.3 5.9-5.1 5.9-1.4 0-2.8-1-3.3-3.4.4-2.7.7-5.1.7-7.3 0-6.1-1.3-7.1-4.8-7.2v-1.3c2.4.2 3.1.1 3.1.2zm-1-41.1c9.4.5 12.5 4 12.5 6.9 0 2.1-1.6 3.9-3.7 3.9-.9 0-1.7-.3-2.6-1.1-1.1-3.4-3.8-7.2-6.6-9.3l.4-.4zm50.8 23.8l7.2 5.4c-.5.9-1.4 1.2-3.1 1.2H99.8l7.1 2.4c-.2.9-.9 1.3-2.6 1.2-3.3 5.5-7.1 11.2-10.9 15.5 5.8-.2 12.9-.5 20.4-.9-1.4-3.1-3.1-6.1-5-8.4l.5-.4c10.9 4.6 14.3 10.5 14.3 14.7 0 3-1.8 5.2-4.1 5.2-1.1 0-2.2-.5-3.3-1.5-.2-2.4-.9-5.1-1.8-7.8-6.1 2-14.4 4.1-26.3 7.1-.4.9-1.2 1.3-2 1.4l-4-9c2.1 0 5.1-.1 8.8-.2 1.8-5.1 4-12.6 5.6-19.2H82.3l-.4-1.3h17.4V60H86.4l-.3-1.3h13.2V44.6l10 1c-.1.9-.8 1.4-2.7 1.7v11.4h5.5l3.7-5.1 7.1 5.3c-.5.9-1.4 1.2-3.1 1.2h-13.1v15h8l3.9-5.5zm24.5-5.9l4.5 4.7c-.3.4-.9.5-2 .5-1.4 2.6-4.2 7.4-6.1 10.2 4.7 3.3 6.8 6.5 6.8 10.3 0 4.3-1.6 7.1-6.5 7.4 0-2.9-.8-3.7-2.6-3.9v-.7h2.7c.8 0 1.8 0 1.8-3.3 0-3.4-.9-6.7-3.1-9.9.7-2.8 1.7-8.5 2.4-11.8h-4.3v37.2c0 .3-1.4 1.5-3.7 1.5h-.9V64.3l5.1 2h3.4l2.5-2.6zm30.5 20c-.3.5-1 .9-2.2.9h-15c-.5 1.6-1.3 3.1-2.3 4.6h12.4l2-2.3 4.6 3.5c-.3.3-.9.7-1.7.8-.3 8.6-1 12.4-2.8 13.7-1.3 1-2.5 1.3-4.8 1.4 0-2.6-.5-3.4-3.4-4v-.7h3.8c.7 0 1 0 1.3-.3.8-.7 1.2-4.1 1.5-11.2h-1.3c-2.1 6.6-6.2 12.1-12.5 16l-.4-.7c4.1-4 6.8-9.4 8.3-15.3h-1.5c-2.6 6-7.4 11-13.6 14.4l-.5-.8c4.2-3.6 7.6-8.7 9.7-13.8h-1.5c-2.4 3.5-5.6 6.4-9.9 8.8l-.4-.8c4-3.5 6.7-8.4 8.3-13.5h-5.4l-.2-.9h20.6l2.5-3.4 4.4 3.6zm-20.2-4.8v1.4c0 .3-1.4 1.3-3.6 1.3h-.8V64.3l4.8 2h9.6l2-2.5 4.7 3.5c-.3.3-.8.7-1.7.8v12.2c0 .2-1.4 1.1-3.7 1.1h-.9V79h-10.3v-.1h-.1zm10.5-11.8h-10.4v5h10.4v-5zM153.4 78h10.4v-5h-10.4v5zm63.7 14.9v7.4c1.7.7 2 1 2 1.6 0 1.8-1.3 2.9-6.2 2.9h-6.7c-5.1 0-6.2-1-6.2-5.6V82h-5c-.2.5-.7.7-1.7.8-.8 10.1-4 18.9-16.6 23l-.3-.7c9.6-4.7 11.6-13.6 11.8-23.1h-11.6l-.2-.9H195v-18l6.9.7c0 .7-.5 1-2 1.2v16.2h10.9l2.8-3.7 5.3 3.7c-.3.5-.9.9-2.3.9h-10.4c-.2.3-.5.4-1.5.7v16.6c0 1.3.1 1.4 1.4 1.4h6.5c1 0 1.3-.1 1.7-.9.4-.9 1.2-3.5 2.2-6.9l.6-.1zm-36.5-26.8c7.3 2.5 9.6 6.2 9.6 8.9 0 2-1.3 3.5-2.8 3.5-.8 0-1.5-.3-2.3-1.1-.2-3.7-2.3-8.4-4.9-11.1l.4-.2zm23.3 12.6c1.7-3 4.2-8.3 6-13l6.7 3c-.2.5-.8.9-2 .7-3.1 3.7-6.8 7.4-10.2 9.7l-.5-.4zm45.4-22.6c-.2.5-.8.9-1.6.9-.3 0-.7-.1-1.1-.1-3.1 4.8-8.3 11.2-13.2 16.5 2.8-.1 6.1-.1 9.3-.2-.5-1.7-1.4-3.4-2.3-4.7l.7-.4c6.7 2.7 8.9 6.1 8.9 8.7 0 2.2-1.6 3.8-3.4 3.8-.9 0-2-.4-2.7-1.5 0-1.3-.2-2.8-.7-4.3l-2.8.9v28.6c0 .4-2.1 1.8-5.2 1.8H234V85.4c-.3.1-.8.2-1.4.2-1.7 6.2-4.5 11.9-7.9 15.4l-1-.5c1.7-4.1 2.9-11.2 3.4-17.8l6.8 1.4v-6.7c-1.8.5-3.8 1.1-6 1.5-.4.9-1.1 1.3-1.8 1.4l-2.3-6.7c1.6 0 4.1 0 7.1-.1 3.5-6.5 7.3-14.8 9.7-20.7l8.7 3.3zm-24.9-.4c2.2.4 4 1.1 5.3 1.7 1.2-3.5 2.5-8.4 3.5-12.7l8.9 3c-.2.8-.9 1.2-2.5 1.2-2.4 3.4-5.3 6.9-8 9.6 2.1 1.4 2.8 3 2.8 4.3 0 2-1.5 3.5-3.1 3.5-.9 0-1.7-.4-2.5-1.2-.4-3-2.5-6.7-4.7-8.9l.3-.5zM242 82.6c6 3.1 7.9 6.6 7.9 9.2 0 2.4-1.7 4.1-3.5 4.1-.9 0-1.8-.4-2.6-1.5.2-3.6-.9-8.6-2.5-11.5l.7-.3zM278.2 46l6.9 5.2c-.4.5-1.3 1.1-2.6 1.3v45.2c0 4.5-1.1 7.6-8.4 8.3 0-5-1.5-6-6.1-6.5v-.9h7.1c.8 0 1-.2 1-1v-20c-.4.1-.9.1-1.5.1H265v10.2c0 1.5 0 1.7.9 1.7h5.1c.2 0 1.5-.2 1.8-.2 2.2.9 2.2 1.4 2.2 2.1 0 2.1-1.5 2.8-5.2 2.8h-4.3c-5.3 0-5.9-.8-5.9-6.4V77.7h-3.4v25.6c0 .1-.5 2.5-6.2 2.5V46.6l6.6 2.9h18.8l2.8-3.5zm-21.8 30.4h6.8v-8.6h-6.4l-.3-1.3h13.8l2.3-3 3.7 2.7V56.1c-.2.3-.7.5-1.5.4-1.4 2.4-4 6.4-6.4 9.1l-.8-.2c.9-3.6 2.1-9 2.4-11.7l6.3 2.1v-5h-19.9v25.6zm1.9-22.3c5 2.7 6.6 5.8 6.6 7.9 0 2.1-1.3 3.4-2.7 3.4-.8 0-1.5-.4-2.1-1.2.1-3-1.1-7.3-2.5-9.8l.7-.3zm14.6 19l3.4 2.5v-8c-.4.2-1.1.3-2.1.3H270c-.2.2-.8.3-1.4.4v8.1h1.8l2.5-3.3z" fill="#912200"/></g></svg>