<svg width="24" height="24" viewBox="0 0 24 24" xmlns="http://www.w3.org/2000/svg"><title>search</title><path d="M9.962 13.686c1.144 0 2.117-.4 2.917-1.2.801-.801 1.201-1.774 1.201-2.918 0-1.144-.4-2.116-1.2-2.917-.801-.8-1.774-1.2-2.918-1.2-1.143 0-2.116.4-2.916 1.2-.801.801-1.201 1.773-1.201 2.917s.4 2.117 1.2 2.917c.801.801 1.774 1.201 2.917 1.201zm5.491 0L20 18.233l-1.373 1.373-4.547-4.547v-.73l-.257-.257c-1.087.944-2.373 1.416-3.86 1.416-1.66 0-3.068-.572-4.226-1.716C4.58 12.628 4 11.227 4 9.568c0-1.658.58-3.067 1.737-4.225 1.158-1.158 2.567-1.737 4.225-1.737 1.66 0 3.06.579 4.204 1.737 1.144 1.158 1.716 2.567 1.716 4.225 0 1.487-.472 2.774-1.416 3.861l.258.257h.73z" fill="#B7B6B6" fill-rule="evenodd"/></svg>