<svg width="104" height="40" viewBox="0 0 104 40" xmlns="http://www.w3.org/2000/svg"><title>Logo/white</title><g fill="#FFF" fill-rule="evenodd"><path d="M67.27 16.714c4.523 1.413 4.305 5.072 5.644 4.746 1.375-.326.796-6.812-6.838-9.82-6.079-2.39-12.845-.29-15.414 5.4-1.194 2.609-.181 5 2.17 4.638 2.353-.29 7.78-7.102 14.438-4.964zM51.494 13.09c-2.28 3.044-6.477-3.261-5.68-4.276.795-1.16 8.249.834 5.68 4.276zM56.56 9.83c-4.306 1.522-4.379-7.61-2.895-8.117 1.592-.58 7.78 6.341 2.895 8.117zm13.025 2.102c-3.473-2.5 3.619-7.32 4.74-6.486 1.303.942-.796 9.348-4.74 6.486zm4.379 4.746c-1.122-3.225 5.644-3.188 6.006-2.138.47 1.232-4.704 5.834-6.006 2.138zm-11.29-7.609C57.826 8.053 63-.317 64.592.009c1.845.435 3.582 10.255-1.918 9.059zM12.464 20.478l2.643 1.921c-.178.326-.5.435-1.107.435H.107L0 22.363h11.071l1.393-1.885zm5.393-3.335l2.714 2.03c-.142.181-.5.399-.964.471v16.023c0 1.74-.5 2.936-3.714 3.19 0-2.211-1.536-2.429-3.357-2.61v-.326h4.035c.393 0 .5-.073.5-.363V18.992H.857l-.143-.435h16.143l1-1.414zm-7.321 7.685l2.643 1.885c-.143.181-.465.399-.965.471v7.287c0 .036-.643.761-2.393.761v-2.175H5.107v2.139c0 .036-.321.906-2.357.906v-11.02l2.464 1.015h4.393l.929-1.269zM5.07 32.586h4.715v-5.982H5.07v5.982zM24.148 23.855c3.303.186 4.379 1.416 4.379 2.46 0 .784-.594 1.38-1.336 1.38-.334 0-.63-.112-.965-.41-.334-1.156-1.224-2.498-2.226-3.244l.148-.186zm1.559 9.06c.334 0 .445 0 .668-.522.408-.634.52-.932 5.269-11.372l.408.074c-1.039 3.207-2.969 9.024-3.34 10.366-.185.858-.408 1.753-.408 2.35.037 1.23.89 2.087.89 3.989 0 2.163-1.595 2.2-1.892 2.2-.52 0-1.039-.373-1.224-1.268.148-1.007.26-1.901.26-2.722 0-2.274-.483-2.647-1.781-2.684v-.485c.89.074 1.15.037 1.15.074zm-.371-15.325c3.488.187 4.638 1.492 4.638 2.573 0 .783-.594 1.454-1.373 1.454-.334 0-.63-.112-.965-.41-.408-1.268-1.41-2.685-2.449-3.468l.149-.149zm18.85 8.875l2.671 2.013c-.185.336-.52.448-1.15.448H37.21l2.634.895c-.074.335-.334.484-.965.447-1.224 2.05-2.634 4.176-4.044 5.78 2.152-.075 4.787-.187 7.57-.336-.52-1.156-1.15-2.275-1.856-3.132l.186-.15c4.044 1.716 5.306 3.916 5.306 5.482 0 1.119-.668 1.939-1.522 1.939-.408 0-.816-.187-1.224-.56-.074-.894-.334-1.901-.668-2.908-2.263.746-5.343 1.529-9.759 2.648-.148.335-.445.484-.742.522l-1.484-3.356c.78 0 1.892-.038 3.265-.075.668-1.902 1.484-4.698 2.078-7.16h-5.269l-.148-.484h6.456v-5.593h-4.787l-.11-.485h4.897v-5.257l3.71.373c-.036.335-.296.522-1.001.634v4.25h2.04l1.374-1.901 2.634 1.976c-.185.336-.52.447-1.15.447H39.77v5.593h2.968l1.448-2.05zM51.938 24l1.611 1.64c-.107.139-.322.174-.716.174-.501.906-1.504 2.58-2.184 3.557 1.683 1.15 2.435 2.267 2.435 3.592 0 1.5-.573 2.476-2.327 2.58 0-1.01-.287-1.29-.931-1.36v-.243h.966c.287 0 .645 0 .645-1.151 0-1.186-.322-2.337-1.11-3.453.25-.977.609-2.964.86-4.115h-1.54v12.974c0 .104-.501.523-1.325.523H48V24.209l1.826.698h1.217l.895-.907zm10.92 6.975c-.108.175-.359.314-.788.314H56.7c-.18.558-.466 1.081-.824 1.604h4.44l.715-.802 1.647 1.22a1.085 1.085 0 0 1-.608.28c-.108 3-.358 4.324-1.003 4.778-.465.349-.895.453-1.718.488 0-.907-.18-1.186-1.218-1.395v-.244h1.36c.252 0 .359 0 .466-.105.287-.244.43-1.43.537-3.906h-.465c-.752 2.302-2.22 4.22-4.475 5.58l-.143-.244c1.467-1.395 2.434-3.278 2.971-5.336h-.537c-.93 2.093-2.65 3.837-4.869 5.022l-.179-.279c1.504-1.255 2.721-3.034 3.473-4.813h-.537c-.86 1.221-2.005 2.233-3.544 3.07l-.144-.28c1.432-1.22 2.4-2.929 2.972-4.708h-1.933l-.072-.314h7.375l.895-1.185 1.575 1.255zm-7.233-1.674v.488c0 .105-.5.454-1.288.454h-.287v-6.034l1.719.698h3.437l.716-.872 1.682 1.22a.974.974 0 0 1-.608.28v4.254c0 .07-.502.384-1.325.384h-.322v-.837H55.66v-.035h-.036zm3.76-4.115H55.66v1.744h3.724v-1.744zm-3.76 3.801h3.724v-1.744h-3.724v1.744zM78.161 34.369v2.574c.592.244.696.348.696.557 0 .626-.452 1.01-2.157 1.01h-2.331c-1.775 0-2.158-.349-2.158-1.95v-5.984h-1.74c-.069.174-.243.244-.59.278-.28 3.515-1.393 6.577-5.777 8.003L64 38.614c3.34-1.636 4.036-4.732 4.106-8.038H64.07l-.07-.313h6.472V24l2.4.244c0 .243-.173.348-.695.417v5.637h3.792l.974-1.288 1.845 1.288c-.105.174-.314.313-.8.313h-3.62c-.069.104-.173.14-.521.243v5.776c0 .453.035.487.487.487h2.262c.347 0 .452-.034.591-.313.14-.313.418-1.218.765-2.4l.21-.035zm-12.7-9.325c2.54.87 3.34 2.157 3.34 3.097 0 .695-.452 1.217-.974 1.217-.278 0-.522-.104-.8-.382-.07-1.288-.8-2.923-1.705-3.863l.14-.07zm8.107 4.384c.592-1.044 1.462-2.888 2.088-4.523l2.331 1.043c-.07.174-.278.314-.696.244-1.078 1.287-2.366 2.575-3.549 3.375l-.174-.14zM90.673 21.387c-.075.186-.298.335-.596.335-.111 0-.26-.037-.41-.037-1.153 1.786-3.09 4.169-4.913 6.142 1.042-.037 2.27-.037 3.462-.075a6.382 6.382 0 0 0-.856-1.75l.26-.148c2.494 1.005 3.313 2.27 3.313 3.239 0 .819-.595 1.414-1.265 1.414-.335 0-.745-.149-1.005-.558 0-.484-.075-1.043-.261-1.6l-1.042.334V39.33c0 .149-.782.67-1.936.67h-.447v-7.706a1.726 1.726 0 0 1-.521.075c-.633 2.308-1.675 4.43-2.94 5.732l-.373-.186c.633-1.526 1.08-4.17 1.266-6.626l2.531.521v-2.494c-.67.186-1.415.41-2.234.558a.843.843 0 0 1-.67.522L81.18 27.9c.596 0 1.526 0 2.643-.037 1.303-2.42 2.718-5.51 3.611-7.706l3.239 1.229zm-9.27-.15a8.2 8.2 0 0 1 1.973.634c.447-1.303.931-3.127 1.303-4.728l3.314 1.117c-.075.297-.335.446-.931.446-.894 1.266-1.973 2.569-2.978 3.574.782.521 1.042 1.117 1.042 1.6 0 .745-.558 1.304-1.154 1.304-.335 0-.633-.15-.93-.447-.15-1.117-.931-2.494-1.75-3.313l.111-.186zm6.552 10.015c2.234 1.154 2.941 2.457 2.941 3.425 0 .893-.633 1.526-1.303 1.526-.335 0-.67-.149-.968-.559.075-1.34-.335-3.201-.93-4.28l.26-.112zm13.476-13.625L104 19.563c-.149.186-.484.41-.968.484v16.826c0 1.675-.41 2.83-3.127 3.09 0-1.862-.558-2.234-2.27-2.42v-.335h2.642c.298 0 .373-.074.373-.372V29.39c-.15.038-.335.038-.559.038h-3.574v3.797c0 .558 0 .633.335.633h1.899c.075 0 .558-.075.67-.075.82.335.82.521.82.782 0 .782-.56 1.042-1.937 1.042h-1.6c-1.973 0-2.197-.298-2.197-2.382v-3.797h-1.265v9.53c0 .037-.187.93-2.309.93V17.85l2.457 1.08h6.999l1.042-1.303zm-8.115 11.317h2.531v-3.202h-2.382l-.112-.484h5.137l.857-1.117 1.377 1.006v-3.76c-.074.111-.26.186-.558.149-.522.893-1.49 2.382-2.383 3.387l-.298-.074c.335-1.34.782-3.35.894-4.356l2.345.782v-1.861h-7.408v9.53zm.707-8.302c1.862 1.005 2.457 2.16 2.457 2.941 0 .782-.484 1.266-1.005 1.266-.298 0-.558-.15-.782-.447.038-1.117-.41-2.717-.93-3.648l.26-.112zm5.435 7.073l1.266.93v-2.977c-.149.074-.41.111-.782.111H98.38c-.075.075-.298.112-.521.15v3.015h.67l.93-1.229z"/></g></svg>