<?xml version="1.0" encoding="UTF-8" standalone="no"?>
<svg width="240px" height="235px" viewBox="0 0 240 235" version="1.1" xmlns="http://www.w3.org/2000/svg" xmlns:xlink="http://www.w3.org/1999/xlink" xmlns:sketch="http://www.bohemiancoding.com/sketch/ns">
    <!-- Generator: Sketch 3.3.3 (12072) - http://www.bohemiancoding.com/sketch -->
    <title>case</title>
    <desc>Created with Sketch.</desc>
    <defs></defs>
    <g id="Page-1" stroke="none" stroke-width="1" fill="none" fill-rule="evenodd" sketch:type="MSPage">
        <g id="case" sketch:type="MSLayerGroup" transform="translate(100.000000, 100.000000)">
            <path d="M9.8,18.7 C9.8,11.5 16.6,5.6 25.1,5.3 C22.8,2.4 18.4,0.4 13.5,0.4 C6,0.4 0,4.8 0,10.2 C0,13.2 1.9,15.9 4.9,17.7 L4.9,24.2 C4.9,24.7 5.5,25 5.9,24.7 L10.1,21.4 C9.9,20.5 9.8,19.6 9.8,18.7 L9.8,18.7 Z" id="Shape" sketch:type="MSShapeGroup"></path>
            <path d="M25.6,7.7 C18.2,7.7 12.2,12.6 12.2,18.7 C12.2,24.8 18.2,29.7 25.6,29.7 C26.1,29.7 26.5,29.7 27,29.6 L33.2,34.4 C33.6,34.7 34.2,34.4 34.2,33.9 L34.2,27.1 C37.2,25.1 39.1,22 39.1,18.6 C39,12.7 33,7.7 25.6,7.7 L25.6,7.7 Z M32.8,25.2 L31.7,25.9 L31.7,30.2 L28.5,27.7 L27.7,27.1 L26.7,27.2 C26.3,27.2 25.9,27.3 25.5,27.3 C19.5,27.3 14.5,23.5 14.5,18.8 C14.5,14.1 19.4,10.3 25.5,10.3 C31.5,10.3 36.5,14.1 36.5,18.8 C36.6,21.2 35.2,23.5 32.8,25.2 L32.8,25.2 Z M31.7,16.9 C30.7,16.9 29.9,17.7 29.9,18.7 C29.9,19.7 30.7,20.5 31.7,20.5 C32.7,20.5 33.5,19.7 33.5,18.7 C33.5,17.7 32.7,16.9 31.7,16.9 L31.7,16.9 Z M19.5,16.9 C18.5,16.9 17.7,17.7 17.7,18.7 C17.7,19.7 18.5,20.5 19.5,20.5 C20.5,20.5 21.3,19.7 21.3,18.7 C21.3,17.7 20.5,16.9 19.5,16.9 L19.5,16.9 Z M25.6,16.9 C24.6,16.9 23.8,17.7 23.8,18.7 C23.8,19.7 24.6,20.5 25.6,20.5 C26.6,20.5 27.4,19.7 27.4,18.7 C27.4,17.7 26.6,16.9 25.6,16.9 L25.6,16.9 Z" id="Shape" sketch:type="MSShapeGroup"></path>
        </g>
    </g>
</svg>