<?xml version="1.0" encoding="UTF-8" standalone="no"?>
<svg width="33px" height="33px" viewBox="0 0 33 33" version="1.1" xmlns="http://www.w3.org/2000/svg" xmlns:xlink="http://www.w3.org/1999/xlink" xmlns:sketch="http://www.bohemiancoding.com/sketch/ns">
    <!-- Generator: Sketch 3.3.3 (12072) - http://www.bohemiancoding.com/sketch -->
    <title>case-process</title>
    <desc>Created with Sketch.</desc>
    <defs></defs>
    <g id="Page-1" stroke="none" stroke-width="1" fill="none" fill-rule="evenodd" sketch:type="MSPage">
        <g id="case-process-copy" sketch:type="MSLayerGroup" fill="#D8D8D8">
            <g id="Page-1" sketch:type="MSShapeGroup">
                <g id="case-process">
                    <path d="M5.2,21.7 L9.8,21.7 L10.7,19.6 L5.2,19.6 L5.2,21.7 L5.2,21.7 Z M5.2,17.5 L12.3,17.5 L14.4,15.4 L5.2,15.4 L5.2,17.5 L5.2,17.5 Z M5.2,11.3 L5.2,13.4 L16.5,13.4 L18.6,11.3 L5.2,11.3 L5.2,11.3 Z" id="Shape"></path>
                    <path d="M24.7,30.9 L2.1,30.9 L2.1,10.1 C2.1,9.5 2.6,8.7 3.1,8.7 L5.2,8.7 C6.3,8.7 7.1,8.6 7.9,7.8 C8.7,7 8.8,6.1 8.8,5.1 L8.8,3.1 C8.8,2.5 9.6,2.1 10.2,2.1 L24.8,2.1 L24.8,5.1 L26.8,3 L26.8,2 C26.8,1.5 26.6,0.9 26.2,0.5 C25.8,0.2 25.3,0 24.7,0 L10.3,0 C9,0 7.7,0.5 6.8,1.5 L1.5,6.8 C0.5,7.7 0,9 0,10.3 L0,30.9 C0,31.4 0.2,32 0.6,32.4 C1,32.8 1.5,33 2.1,33 L24.8,33 C25.3,33 25.9,32.8 26.3,32.4 C26.7,32 26.9,31.5 26.9,30.9 L26.9,17.6 L24.8,19.7 L24.8,30.9 L24.7,30.9 L24.7,30.9 Z M31.4,5.7 C30.2,4.5 28.9,3.8 28.5,4.2 L12.5,20.2 C13,19.9 14.2,20.5 15.4,21.7 C16.6,22.9 17.2,24.1 16.9,24.6 L16.9,24.6 L32.9,8.6 C33.3,8.2 32.6,6.9 31.4,5.7 L31.4,5.7 L31.4,5.7 Z M10.6,26.5 L10.6,26.5 C10.9,26.8 11.3,26.9 11.7,26.7 L13.9,25.8 C13.7,25.3 13.3,24.8 12.8,24.3 C12.3,23.8 11.8,23.4 11.3,23.2 L10.4,25.4 C10.3,25.8 10.4,26.2 10.6,26.5 L10.6,26.5 L10.6,26.5 Z" id="Shape"></path>
                </g>
            </g>
        </g>
    </g>
</svg>