<?xml version="1.0" encoding="UTF-8"?>
<svg width="24px" height="24px" viewBox="0 0 24 24" version="1.1" xmlns="http://www.w3.org/2000/svg" xmlns:xlink="http://www.w3.org/1999/xlink">
    <!-- Generator: Sketch 40.3 (33839) - http://www.bohemiancoding.com/sketch -->
    <title>arrow-last</title>
    <desc>Created with Sketch.</desc>
    <defs></defs>
    <g id="Components" stroke="none" stroke-width="1" fill-rule="evenodd">
        <g id="arrow-last">
            <path d="M20.0337571,11.4074095 L13.6877655,4.36214202 C13.1476768,3.87928599 12.6188521,3.87928599 12.1012655,4.36214202 C11.5836832,4.84499806 11.5949342,5.34979213 12.1350229,5.87654532 L17.8734196,12.197533 L12.1350229,18.452677 C11.9099849,18.6721569 11.7974702,18.9245547 11.7974702,19.2098787 C11.7974702,19.4952026 11.9099849,19.7476005 12.1350229,19.9670803 C12.6301032,20.4938318 13.1476768,20.4938318 13.6877655,19.9670803 L20.0337571,12.9218128 C20.2587952,12.7023313 20.3713099,12.4499342 20.3713099,12.1646091 C20.3713099,11.8792881 20.2587952,11.6268911 20.0337571,11.4074095 L20.0337571,11.4074095 Z M4.37130985,19.9670782 C4.86638966,20.471882 5.38396549,20.4609079 5.92405247,19.9341564 L12.3375546,12.8888889 C12.5175841,12.6694073 12.6075968,12.4279835 12.6075968,12.1646091 C12.6075968,11.8573374 12.5175841,11.5939671 12.3375546,11.3744856 L5.92405247,4.32921811 C5.69901616,4.10973656 5.44022846,4 5.14768116,4 C4.85513387,4 4.59634612,4.10973656 4.37130985,4.32921811 C3.87623005,4.81207414 3.87623005,5.31686821 4.37130985,5.8436214 L10.1097065,12.1646091 L4.37130985,18.4197531 C3.87623005,18.9465046 3.87623005,19.4622744 4.37130985,19.9670782 L4.37130985,19.9670782 Z" id="Page-1"></path>
        </g>
    </g>
</svg>