<svg xmlns="http://www.w3.org/2000/svg" viewBox="0 0 183.08 70.95">
  <title>資產 4</title>
  <g id="圖層_2" data-name="圖層 2">
    <g id="Layer_4" data-name="Layer 4">
      <g>
        <path d="M29.88,15.19s24,26.25,24,29.25v24.5" style="fill: none;stroke: #fff;stroke-miterlimit: 10"/>
        <path d="M153.88,15.19s-24,26.25-24,29.25v24.5" style="fill: none;stroke: #fff;stroke-miterlimit: 10"/>
        <path d="M.27,20.94l24.11-6.66V9.94S23.47,7.79,27.9,6.8,53.75,1,56.51,1c3.76,0,30.57,34.94,30.3,39.38-.16,2.61-.09,30.56-.09,30.56" style="fill: none;stroke: #fff;stroke-miterlimit: 10;stroke-width: 2px"/>
        <path d="M182.81,20.94l-24.43-6.66V9.94s1.23-2.15-3.2-3.14S129.48,1,126.72,1C123,1,96.23,35.94,96.5,40.38c.16,2.61,0,30.56,0,30.56" style="fill: none;stroke: #fff;stroke-miterlimit: 10;stroke-width: 2px"/>
      </g>
    </g>
  </g>
</svg>
