<?xml version="1.0" encoding="UTF-8" standalone="no"?>
<svg width="56px" height="57px" viewBox="0 0 56 57" version="1.1" xmlns="http://www.w3.org/2000/svg" xmlns:xlink="http://www.w3.org/1999/xlink">
    <!-- Generator: Sketch 39.1 (31720) - http://www.bohemiancoding.com/sketch -->
    <title>icon/chart</title>
    <desc>Created with Sketch.</desc>
    <defs></defs>
    <g id="Symbols" stroke="none" stroke-width="1" fill-rule="evenodd">
        <g id="Button-+-Icon/circle-button/chart" transform="translate(-62.000000, -45.000000)">
            <path d="M105.604167,89.46875 L105.604167,76.9270833 L99.3333333,76.9270833 L99.3333333,89.46875 L105.604167,89.46875 Z M93.0625,89.46875 L93.0625,58.2604167 L86.9375,58.2604167 L86.9375,89.46875 L93.0625,89.46875 Z M80.6666667,89.46875 L80.6666667,67.59375 L74.3958333,67.59375 L74.3958333,89.46875 L80.6666667,89.46875 Z M111.729167,45.8645833 C113.381951,45.8645833 114.840275,46.4965247 116.104167,47.7604167 C117.368059,49.0243087 118,50.4826327 118,52.1354167 L118,95.59375 C118,97.2465359 117.368059,98.7048552 116.104167,99.96875 C114.840275,101.232645 113.381951,101.864583 111.729167,101.864583 L68.2708333,101.864583 C66.6180475,101.864583 65.1597281,101.232645 63.8958333,99.96875 C62.6319382,98.7048552 62,97.2465359 62,95.59375 L62,52.1354167 C62,50.4826327 62.6319382,49.0243087 63.8958333,47.7604167 C65.1597281,46.4965247 66.6180475,45.8645833 68.2708333,45.8645833 L111.729167,45.8645833 Z" id="icon/chart"></path>
        </g>
    </g>
</svg>