<?xml version="1.0" encoding="UTF-8"?>
<svg width="24px" height="24px" viewBox="0 0 24 24" version="1.1" xmlns="http://www.w3.org/2000/svg" xmlns:xlink="http://www.w3.org/1999/xlink">
    <!-- Generator: Sketch 41.2 (35397) - http://www.bohemiancoding.com/sketch -->
    <title>envelop</title>
    <desc>Created with Sketch.</desc>
    <defs></defs>
    <g id="Components" stroke="none" stroke-width="1" fill="none" fill-rule="evenodd">
        <g id="envelop" fill="#000000">
            <path d="M18.7368421,8 L5.26315789,8 C4.56673684,8 4,8.56083333 4,9.25 L4,16.75 C4,17.4391667 4.56673684,18 5.26315789,18 L18.7368421,18 C19.4332632,18 20,17.4391667 20,16.75 L20,9.25 C20,8.56083333 19.4332632,8 18.7368421,8 Z M18.7368421,8.83333333 C18.7621053,8.83333333 18.7856842,8.83583333 18.8101053,8.84 L12.4673684,13.0241667 C12.2231579,13.185 11.7776842,13.185 11.5334737,13.0241667 L5.19073684,8.84 C5.21431579,8.83583333 5.23873684,8.83333333 5.264,8.83333333 L18.7376842,8.83333333 L18.7368421,8.83333333 Z M18.7368421,17.1666667 L5.26315789,17.1666667 C5.03073684,17.1666667 4.84210526,16.98 4.84210526,16.75 L4.84210526,9.61166667 L11.0661053,13.7175 C11.328,13.89 11.664,13.9766667 12,13.9766667 C12.336,13.9766667 12.672,13.89 12.9338947,13.7175 L19.1578947,9.61166667 L19.1578947,16.75 C19.1578947,16.98 18.9692632,17.1666667 18.7368421,17.1666667 Z" id="Shape"></path>
        </g>
    </g>
</svg>