<?xml version="1.0" encoding="UTF-8" standalone="no"?>
<svg width="16px" height="16px" viewBox="0 0 16 16" version="1.1" xmlns="http://www.w3.org/2000/svg" xmlns:xlink="http://www.w3.org/1999/xlink">
    <!-- Generator: Sketch 39.1 (31720) - http://www.bohemiancoding.com/sketch -->
    <title>icon exit</title>
    <desc>Created with Sketch.</desc>
    <defs></defs>
    <g id="Develop" stroke="none" stroke-width="1"  fill-rule="evenodd" fill-opacity="0.87">
        <g id="Nav" transform="translate(-272.000000, -90.000000)" >
            <g id="side-nav">
                <g id="side-nav-drawer">
                    <g id="account-switcher">
                        <path d="M286.208333,90 C286.680557,90 287.097221,90.1805547 287.458333,90.5416667 C287.819445,90.9027787 288,91.3194427 288,91.7916667 L288,104.208333 C288,104.680558 287.819445,105.097221 287.458333,105.458333 C287.097221,105.819446 286.680557,106 286.208333,106 L273.791667,106 C273.291664,106 272.868057,105.819446 272.520833,105.458333 C272.173609,105.097221 272,104.680558 272,104.208333 L272,100.666667 L273.791667,100.666667 L273.791667,104.208333 L286.208333,104.208333 L286.208333,91.7916667 L273.791667,91.7916667 L273.791667,95.3333333 L272,95.3333333 L272,91.7916667 C272,91.3194427 272.173609,90.9027787 272.520833,90.5416667 C272.868057,90.1805547 273.291664,90 273.791667,90 L286.208333,90 Z M278.291667,101.738318 L280.583333,99.3831776 L272,99.3831776 L272,97.6168224 L280.583333,97.6168224 L278.291667,95.2616822 L279.541667,94 L284,98.5 L279.541667,103 L278.291667,101.738318 Z" id="icon-exit"></path>
                    </g>
                </g>
            </g>
        </g>
    </g>
</svg>