<?xml version="1.0" encoding="UTF-8"?>
<svg width="24px" height="24px" viewBox="0 0 24 24" version="1.1" xmlns="http://www.w3.org/2000/svg" xmlns:xlink="http://www.w3.org/1999/xlink">
    <!-- Generator: Sketch 41.2 (35397) - http://www.bohemiancoding.com/sketch -->
    <title>file-search</title>
    <desc>Created with Sketch.</desc>
    <defs></defs>
    <g id="Components" stroke="none" stroke-width="1" fill="none" fill-rule="evenodd">
        <g id="file-search" fill="#000000">
            <g id="Group" transform="translate(6.000000, 4.000000)">
                <path d="M12.881375,3.91242105 L9.225125,0.122947368 C9.14875,0.0437894737 9.0455625,-1.11022302e-16 8.9375,-1.11022302e-16 L1.21875,-1.11022302e-16 C0.5468125,-1.11022302e-16 0,0.566736842 0,1.26315789 L0,14.7368421 C0,15.4332632 0.5468125,16 1.21875,16 L11.78125,16 C12.4531875,16 13,15.4332632 13,14.7368421 L13,4.21052632 C13,4.09852632 12.9569375,3.99157895 12.881375,3.91242105 Z M12.0193125,4.21052632 L9.34375,4.21052632 C9.1195,4.21052632 8.9375,4.02189474 8.9375,3.78947368 L8.9375,1.01642105 L12.0193125,4.21052632 Z M11.78125,15.1578947 L1.21875,15.1578947 C0.9945,15.1578947 0.8125,14.9692632 0.8125,14.7368421 L0.8125,1.26315789 C0.8125,1.03073684 0.9945,0.842105263 1.21875,0.842105263 L8.125,0.842105263 L8.125,3.78947368 C8.125,4.48589474 8.6718125,5.05263158 9.34375,5.05263158 L12.1875,5.05263158 L12.1875,14.7368421 C12.1875,14.9692632 12.0055,15.1578947 11.78125,15.1578947 Z" id="Shape"></path>
                <path d="M10.466625,13.6227368 L8.0795,10.6989474 C8.6116875,10.0985263 8.9375,9.29852632 8.9375,8.42105263 C8.9375,6.56336842 7.479875,5.05263158 5.6875,5.05263158 C3.895125,5.05263158 2.4375,6.56336842 2.4375,8.42105263 C2.4375,10.2787368 3.895125,11.7894737 5.6875,11.7894737 C6.34075,11.7894737 6.9493125,11.5882105 7.4595625,11.2437895 L9.845875,14.1667368 C9.9263125,14.2652632 10.040875,14.3157895 10.15625,14.3157895 C10.248875,14.3157895 10.3423125,14.2829474 10.4186875,14.2164211 C10.590125,14.0665263 10.61125,13.8004211 10.466625,13.6227368 L10.466625,13.6227368 Z M3.25,8.42105263 C3.25,7.02821053 4.343625,5.89473684 5.6875,5.89473684 C7.031375,5.89473684 8.125,7.02821053 8.125,8.42105263 C8.125,9.81389474 7.031375,10.9473684 5.6875,10.9473684 C4.343625,10.9473684 3.25,9.81389474 3.25,8.42105263 Z" id="Shape"></path>
            </g>
        </g>
    </g>
</svg>