<?xml version="1.0" encoding="UTF-8" standalone="no"?>
<svg width="18px" height="18px" viewBox="0 0 18 18" version="1.1" xmlns="http://www.w3.org/2000/svg" xmlns:xlink="http://www.w3.org/1999/xlink">
    <!-- Generator: Sketch 39.1 (31720) - http://www.bohemiancoding.com/sketch -->
    <title>button/forwards</title>
    <desc>Created with Sketch.</desc>
    <defs></defs>
    <g id="Symbols" stroke="none" stroke-width="1" fill-rule="evenodd">
        <g id="Table-parts/評鑑紀錄/row-+-divider" transform="translate(-270.000000, -1.000000)">
            <g id="Button/circle/forwards" transform="translate(270.000000, 1.000000)">
                <path d="M17.4285714,8.92857143 C17.4285714,4.23415106 13.6229918,0.428571429 8.92857143,0.428571429 C4.23415106,0.428571429 0.428571429,4.23415106 0.428571429,8.92857143 C0.428571429,13.6229918 4.23415106,17.4285714 8.92857143,17.4285714 C13.6229918,17.4285714 17.4285714,13.6229918 17.4285714,8.92857143 Z M1.56190476,8.92857143 C1.56190476,4.86007377 4.86007377,1.56190476 8.92857143,1.56190476 C12.9970691,1.56190476 16.2952381,4.86007377 16.2952381,8.92857143 C16.2952381,12.9970691 12.9970691,16.2952381 8.92857143,16.2952381 C4.86007377,16.2952381 1.56190476,12.9970691 1.56190476,8.92857143 Z" id="border"></path>
                <polygon id="icons/arrow-right" points="9 5 13 9 9 13 8.29824561 12.2982456 11.0818713 9.49122807 5 9.49122807 5 8.50877193 11.0818713 8.50877193 8.29824561 5.70175439"></polygon>
            </g>
        </g>
    </g>
</svg>