<?xml version="1.0" encoding="UTF-8" standalone="no"?>
<svg width="12px" height="12px" viewBox="0 0 12 12" version="1.1" xmlns="http://www.w3.org/2000/svg" xmlns:xlink="http://www.w3.org/1999/xlink">
    <!-- Generator: Sketch 39.1 (31720) - http://www.bohemiancoding.com/sketch -->
    <title>Page 1</title>
    <desc>Created with Sketch.</desc>
    <defs></defs>
    <g id="Symbols" stroke="none" stroke-width="1" fill-rule="evenodd" fill-opacity="0.7">
        <g id="Appeal-status/extracted" transform="translate(-131.000000, -284.000000)">
            <g id="accordion-body" transform="translate(0.000000, 208.000000)">
                <g id="評鑑開庭" transform="translate(50.000000, 32.000000)">
                    <path d="M86.4084507,48.1830986 L86.4084507,46.971831 L87.5915493,46.971831 L87.5915493,48.1830986 L86.4084507,48.1830986 Z M87,54.8028169 C88.31456,54.8028169 89.4460043,54.3286432 90.3943671,53.3802826 C91.3427281,52.4319198 91.8169014,51.3004755 91.8169014,49.9859155 C91.8169014,48.6713555 91.3427281,47.5399112 90.3943671,46.5915484 C89.4460043,45.6431874 88.31456,45.1690141 87,45.1690141 C85.68544,45.1690141 84.5539957,45.6431874 83.6056329,46.5915484 C82.6572722,47.5399112 82.1830986,48.6713555 82.1830986,49.9859155 C82.1830986,51.3004755 82.6572722,52.4319198 83.6056329,53.3802826 C84.5539957,54.3286432 85.68544,54.8028169 87,54.8028169 L87,54.8028169 Z M87,43.9859155 C88.65259,43.9859155 90.0657226,44.5727648 91.2394375,45.746478 C92.4131506,46.9201929 93,48.3333255 93,49.9859155 C93,51.6385055 92.4131506,53.0516381 91.2394375,54.2253521 C90.0657226,55.3990669 88.65259,55.9859155 87,55.9859155 C85.34741,55.9859155 83.9342774,55.3990669 82.7605634,54.2253521 C81.5868486,53.0516381 81,51.6385055 81,49.9859155 C81,48.3333255 81.5868486,46.9201929 82.7605634,45.746478 C83.9342774,44.5727648 85.34741,43.9859155 87,43.9859155 L87,43.9859155 Z M86.4084507,53 L86.4084507,49.3943662 L87.5915493,49.3943662 L87.5915493,53 L86.4084507,53 Z" id="Page-1"></path>
                </g>
            </g>
        </g>
    </g>
</svg>