<svg xmlns="http://www.w3.org/2000/svg" viewBox="0 0 500 500"><title>judge-avatar</title><g id="Layer_4" data-name="Layer 4"><path d="M182.37,351.77h-1.79v-44c0-3.67-26.29-33.79-42.86-51.92l1.33-1.21c7.24,7.91,43.33,47.67,43.33,53.13Z"/><path d="M318.85,351.77h-1.79v-44c0-5.46,36.1-45.22,43.33-53.13l1.33,1.21c-16.57,18.13-42.86,48.25-42.86,51.92Z"/><path d="M244.69,355.37l-6,0c0-2.05.22-50.33.51-55-.57-7.45-44.25-64.28-51.9-67.53-3.66.19-23.44,4.21-50.92,10.34-3.58.8-4.7,2-4.87,2.43v10.34L86.92,268.46l-1.63-5.77,40.22-11.35v-5.52c-.05-1.66.59-6.56,9.57-8.56,17.56-3.92,47.73-10.5,52.48-10.5h0c1.75,0,4.1.7,11.94,9,13.14,14,46.21,56.38,45.69,64.86C245,304.31,244.77,338,244.69,355.37ZM187.15,232.71Z"/><path d="M262.2,355.4l-6-.08c.23-17.32.61-51,.39-54.65-.52-8.6,32.88-51.78,45.65-65.37,7.39-7.87,9.68-8.53,11.39-8.53h0c4.19,0,26.37,4.88,47.53,9.65l3.77.85c4.17.93,6.62,2.59,7.49,5.06a5.64,5.64,0,0,1-.29,4.31v4.67l42.55,11.37-1.55,5.8-47-12.56V244.58l.41-.4a8.52,8.52,0,0,0-2.91-1.06l-3.79-.85c-10.23-2.31-41-9.24-45.95-9.49-7.6,3.26-50.77,60.08-51.31,67.62C262.87,305,262.23,353.34,262.2,355.4ZM314,232.71"/><path d="M185.32,146.88h5.4v28c0,11.11-5.46,14.52-12.66,14.52a17.49,17.49,0,0,1-5.77-1l.81-4.41a12.87,12.87,0,0,0,4.53.81c4.84,0,7.69-2.17,7.69-10.36Z"/><path d="M224.66,180.5c0,3.1.06,5.83.25,8.19h-4.84l-.31-4.9h-.12a11.3,11.3,0,0,1-9.93,5.58c-4.71,0-10.36-2.61-10.36-13.15V158.66h5.46v16.63c0,5.71,1.74,9.55,6.7,9.55a7.89,7.89,0,0,0,7.2-5,8,8,0,0,0,.5-2.79V158.66h5.46Z"/><path d="M259.65,144.64v36.29c0,2.67.06,5.71.25,7.76H255l-.25-5.21h-.12a11.11,11.11,0,0,1-10.24,5.89c-7.26,0-12.84-6.14-12.84-15.26-.06-10,6.14-16.13,13.46-16.13,4.59,0,7.69,2.17,9.06,4.59h.12V144.64Zm-5.46,26.24a9.61,9.61,0,0,0-.25-2.3,8,8,0,0,0-7.88-6.33c-5.65,0-9,5-9,11.6,0,6.08,3,11.11,8.87,11.11a8.21,8.21,0,0,0,8-6.51,9.47,9.47,0,0,0,.25-2.36Z"/><path d="M294.58,158.66c-.12,2.17-.25,4.59-.25,8.25v17.43c0,6.89-1.36,11.11-4.28,13.71s-7.14,3.6-10.92,3.6c-3.6,0-7.57-.87-10-2.48L270.5,195a16.93,16.93,0,0,0,8.81,2.36c5.58,0,9.68-2.92,9.68-10.49v-3.35h-.12a10.72,10.72,0,0,1-9.55,5c-7.45,0-12.78-6.33-12.78-14.64,0-10.17,6.64-15.94,13.53-15.94,5.21,0,8.07,2.73,9.37,5.21h.12l.25-4.53Zm-5.65,11.85a7.78,7.78,0,0,0-.31-2.48,7.86,7.86,0,0,0-7.63-5.77c-5.21,0-8.93,4.41-8.93,11.35,0,5.89,3,10.8,8.87,10.8a8,8,0,0,0,7.57-5.58,9.49,9.49,0,0,0,.43-2.92Z"/><path d="M306.43,174.67c.12,7.38,4.84,10.42,10.3,10.42a19.74,19.74,0,0,0,8.31-1.55l.93,3.91a24.32,24.32,0,0,1-10,1.86c-9.25,0-14.77-6.08-14.77-15.14S306.55,158,315.3,158c9.8,0,12.41,8.62,12.41,14.15a20.49,20.49,0,0,1-.19,2.54Zm16-3.91c.06-3.47-1.43-8.87-7.57-8.87-5.52,0-7.94,5.09-8.38,8.87Z"/></g></svg>