<?xml version="1.0" encoding="UTF-8" standalone="no"?>
<svg width="17px" height="16px" viewBox="0 0 17 16" version="1.1" xmlns="http://www.w3.org/2000/svg" xmlns:xlink="http://www.w3.org/1999/xlink">
    <!-- Generator: Sketch 39.1 (31720) - http://www.bohemiancoding.com/sketch -->
    <title>icon/key</title>
    <desc>Created with Sketch.</desc>
    <defs></defs>
    <g id="Symbols" stroke="none" stroke-width="1" fill-rule="evenodd">
        <g id="Input-+-Icon/lock" transform="translate(-1.000000, -17.000000)">
            <g id="icon/key" transform="translate(1.000000, 17.000000)">
                <path d="M7.5639697,7.349 C7.62424242,7.349 7.6850303,7.3285 7.7339697,7.287 L13.5639394,2.326 L13.2239394,1.95 L7.3939697,6.9105 C7.28681818,7.0015 7.276,7.1595 7.37027273,7.2635 C7.42127273,7.32 7.49236364,7.349 7.5639697,7.349 L7.5639697,7.349 Z" id="Shape"></path>
                <path d="M5.24836364,16 C8.41242424,16 10.3030303,13.585 10.3030303,11.25 C10.3030303,10.577 10.1371515,9.8355 9.89193939,9.354 L12.2214545,8.2235 C12.3085152,8.181 12.3636364,8.0945 12.3636364,8 L12.3636364,6 L13.9090909,6 C13.9147576,6 13.9616364,5.997 13.967303,5.997 C14.3103939,5.9745 14.4129091,5.8685 14.4242424,5.5 L14.4242424,3.5 L15.969697,3.5 C16.0361515,3.5 16.082,3.507 16.1129091,3.5115 C16.1752424,3.521 16.2916667,3.5385 16.3926364,3.4505 C16.496697,3.3605 16.4920606,3.2465 16.4879394,3.146 C16.4869091,3.11 16.4848485,3.0625 16.4848485,3 L16.4848485,0.7345 C16.4848485,0.3295 16.1453636,0 15.7280909,0 L13.7318788,0 C13.5495152,0 13.372303,0.0645 13.232697,0.182 L6.43939394,5.962 C6.10506061,5.897 5.59969697,5.8125 5.24784848,5.8125 C2.35424242,5.8125 0,8.0975 0,10.906 C0,13.7145 2.35424242,16 5.24836364,16 L5.24836364,16 Z M5.24836364,6.3125 C5.50645455,6.3125 5.94845455,6.3725 6.4610303,6.4765 C6.54087879,6.4935 6.62278788,6.4715 6.68357576,6.42 L13.5716667,0.559 C13.6164848,0.521 13.6736667,0.5 13.7318788,0.5 L15.7280909,0.5 C15.8615152,0.5 15.969697,0.605 15.969697,0.7345 L15.969697,3 L14.1666667,3 C14.0244848,3 13.9090909,3.112 13.9090909,3.25 L13.9090909,5.5 L12.1060606,5.5 C11.9638788,5.5 11.8484848,5.612 11.8484848,5.75 L11.8484848,7.8455 L9.41490909,9.0265 C9.34742424,9.059 9.2979697,9.1195 9.27993939,9.1905 C9.26190909,9.2615 9.27684848,9.337 9.32115152,9.3965 C9.54781818,9.7 9.78787879,10.4535 9.78787879,11.25 C9.78787879,13.339 8.08993939,15.5 5.24836364,15.5 C2.63860606,15.5 0.515151515,13.439 0.515151515,10.906 C0.515151515,8.373 2.63860606,6.3125 5.24836364,6.3125 L5.24836364,6.3125 Z" id="Shape"></path>
                <path d="M4.37878788,13.5 C5.3730303,13.5 6.18181818,12.715 6.18181818,11.75 C6.18181818,10.785 5.3730303,10 4.37878788,10 C3.38454545,10 2.57575758,10.785 2.57575758,11.75 C2.57575758,12.715 3.38454545,13.5 4.37878788,13.5 L4.37878788,13.5 Z M4.37878788,10.5 C5.08866667,10.5 5.66666667,11.061 5.66666667,11.75 C5.66666667,12.439 5.08866667,13 4.37878788,13 C3.66890909,13 3.09090909,12.439 3.09090909,11.75 C3.09090909,11.061 3.66890909,10.5 4.37878788,10.5 L4.37878788,10.5 Z" id="Shape"></path>
            </g>
        </g>
    </g>
</svg>