<?xml version="1.0" encoding="UTF-8"?>
<svg width="24px" height="24px" viewBox="0 0 24 24" version="1.1" xmlns="http://www.w3.org/2000/svg" xmlns:xlink="http://www.w3.org/1999/xlink">
    <!-- Generator: Sketch 40.3 (33839) - http://www.bohemiancoding.com/sketch -->
    <title>medal</title>
    <desc>Created with Sketch.</desc>
    <defs></defs>
    <g id="Components" stroke="none" stroke-width="1" fill-rule="evenodd">
        <g id="medal">
            <path d="M15.6178248,5.62806797 L15.090068,4.0034613 L13.3821752,4.0034613 L12,3 L10.6178248,4.0034613 L8.90993202,4.0034613 L8.38217523,5.62806797 L7,6.63152926 L7.5277568,8.25613593 L7,9.88074261 L8.38217523,10.8842039 L8.69561934,11.8480176 L8.69561934,20.528005 C8.69561934,20.7016992 8.79191843,20.8621775 8.94486405,20.9443046 C9.09780967,21.0264317 9.2847432,21.0169918 9.42919184,20.9207048 L12,19.2073631 L14.5708082,20.9207048 C14.6501133,20.9735683 14.7407477,21 14.8323263,21 C14.9087991,21 14.9852719,20.9811202 15.055136,20.9443046 C15.2090257,20.8621775 15.3043807,20.7026432 15.3043807,20.528005 L15.3043807,11.8480176 L15.6178248,10.8842039 L17,9.88074261 L16.4722432,8.25613593 L17,6.63152926 L15.6178248,5.62806797 Z M14.8153323,10.3008181 L14.4065332,11.5601007 L14.361216,11.5601007 L13.076284,11.5638767 L12.0009441,12.3445563 L10.9256042,11.5638767 L9.5972432,11.5638767 L9.18655589,10.2998741 L8.11121601,9.51919446 L8.52190332,8.25519194 L8.11121601,6.99118943 L9.18655589,6.21050975 L9.5972432,4.94650724 L10.9256042,4.94650724 L12.0009441,4.16582756 L13.076284,4.94650724 L14.404645,4.94650724 L14.8153323,6.21050975 L15.8906722,6.99118943 L15.4799849,8.25519194 L15.8906722,9.51919446 L14.8153323,10.3008181 Z" id="Shape"></path>
        </g>
    </g>
</svg>