<?xml version="1.0" encoding="UTF-8" standalone="no"?>
<svg width="16px" height="16px" viewBox="0 0 16 16" version="1.1" xmlns="http://www.w3.org/2000/svg" xmlns:xlink="http://www.w3.org/1999/xlink">
    <!-- Generator: Sketch 39.1 (31720) - http://www.bohemiancoding.com/sketch -->
    <title>icon/pencil</title>
    <desc>Created with Sketch.</desc>
    <defs></defs>
    <g id="Symbols" stroke="none" stroke-width="1" fill-rule="evenodd">
        <g id="Button-+-Icon/pencil/flat/dense/gray" transform="translate(-1.000000, -2.000000)">
            <g id="icon/pencil" transform="translate(1.000000, 2.000000)">
                <path d="M2.8,13.6 C2.696,13.6 2.5936,13.5592 2.5168,13.4824 C2.4072,13.3728 2.3704,13.2088 2.424,13.0632 L4.024,8.6632 C4.044,8.608 4.076,8.5584 4.1168,8.5168 L12.5168,0.1168 C12.6728,-0.0392 12.9264,-0.0392 13.0824,0.1168 L15.8824,2.9168 C16.0384,3.0728 16.0384,3.3264 15.8824,3.4824 L7.4824,11.8824 C7.4408,11.924 7.3912,11.9552 7.336,11.9752 L2.936,13.5752 C2.8912,13.5912 2.8456,13.5992 2.7992,13.5992 L2.8,13.6 Z M4.7456,9.02 L3.4688,12.5312 L6.98,11.2544 L15.0344,3.2 L12.8,0.9656 L4.7456,9.02 L4.7456,9.02 Z" id="Shape"></path>
                <path d="M14,16 L1.2,16 C0.5384,16 0,15.4616 0,14.8 L0,2 C0,1.3384 0.5384,0.8 1.2,0.8 L9.2,0.8 C9.4208,0.8 9.6,0.9792 9.6,1.2 C9.6,1.4208 9.4208,1.6 9.2,1.6 L1.2,1.6 C0.9792,1.6 0.8,1.7792 0.8,2 L0.8,14.8 C0.8,15.0208 0.9792,15.2 1.2,15.2 L14,15.2 C14.2208,15.2 14.4,15.0208 14.4,14.8 L14.4,6.8 C14.4,6.5792 14.5792,6.4 14.8,6.4 C15.0208,6.4 15.2,6.5792 15.2,6.8 L15.2,14.8 C15.2,15.4616 14.6616,16 14,16 L14,16 Z" id="Shape"></path>
            </g>
        </g>
    </g>
</svg>