<?xml version="1.0" encoding="UTF-8"?>
<svg width="24px" height="24px" viewBox="0 0 24 24" version="1.1" xmlns="http://www.w3.org/2000/svg" xmlns:xlink="http://www.w3.org/1999/xlink">
    <!-- Generator: Sketch 41.2 (35397) - http://www.bohemiancoding.com/sketch -->
    <title>phone</title>
    <desc>Created with Sketch.</desc>
    <defs></defs>
    <g id="Components" stroke="none" stroke-width="1" fill="none" fill-rule="evenodd">
        <g id="phone" fill="#000000">
            <g id="Group" transform="translate(4.000000, 4.000000)">
                <path d="M11.78125,16 L4.46875,16 C3.7968125,16 3.25,15.4616 3.25,14.8 L3.25,10 C3.25,9.7792 3.432,9.6 3.65625,9.6 C3.8805,9.6 4.0625,9.7792 4.0625,10 L4.0625,14.8 C4.0625,15.0208 4.2445,15.2 4.46875,15.2 L11.78125,15.2 C12.0055,15.2 12.1875,15.0208 12.1875,14.8 L12.1875,1.2 C12.1875,0.9792 12.0055,0.8 11.78125,0.8 L8.53125,0.8 C8.307,0.8 8.125,0.6208 8.125,0.4 C8.125,0.1792 8.307,0 8.53125,0 L11.78125,0 C12.4531875,0 13,0.5384 13,1.2 L13,14.8 C13,15.4616 12.4531875,16 11.78125,16 Z" id="Shape"></path>
                <path d="M10.96875,12.8 L5.28125,12.8 C5.057,12.8 4.875,12.6208 4.875,12.4 L4.875,10 C4.875,9.7792 5.057,9.6 5.28125,9.6 C5.5055,9.6 5.6875,9.7792 5.6875,10 L5.6875,12 L10.5625,12 L10.5625,2.4 L10.15625,2.4 C9.932,2.4 9.75,2.2208 9.75,2 C9.75,1.7792 9.932,1.6 10.15625,1.6 L10.96875,1.6 C11.193,1.6 11.375,1.7792 11.375,2 L11.375,12.4 C11.375,12.6208 11.193,12.8 10.96875,12.8 Z" id="Shape"></path>
                <path d="M8.53125,14.4 L7.71875,14.4 C7.4945,14.4 7.3125,14.2208 7.3125,14 C7.3125,13.7792 7.4945,13.6 7.71875,13.6 L8.53125,13.6 C8.7555,13.6 8.9375,13.7792 8.9375,14 C8.9375,14.2208 8.7555,14.4 8.53125,14.4 Z" id="Shape"></path>
                <path d="M4.46875,8.8 C2.0044375,8.8 0,6.8264 0,4.4 C0,1.9736 2.0044375,0 4.46875,0 C6.9330625,0 8.9375,1.9736 8.9375,4.4 C8.9375,6.8264 6.9330625,8.8 4.46875,8.8 Z M4.46875,0.8 C2.4529375,0.8 0.8125,2.4152 0.8125,4.4 C0.8125,6.3848 2.4529375,8 4.46875,8 C6.4845625,8 8.125,6.3848 8.125,4.4 C8.125,2.4152 6.4845625,0.8 4.46875,0.8 Z" id="Shape"></path>
                <path d="M4.46875,3.2 C4.2445,3.2 4.0625,3.0208 4.0625,2.8 L4.0625,2 C4.0625,1.7792 4.2445,1.6 4.46875,1.6 C4.693,1.6 4.875,1.7792 4.875,2 L4.875,2.8 C4.875,3.0208 4.693,3.2 4.46875,3.2 Z" id="Shape"></path>
                <path d="M4.46875,7.2 C4.2445,7.2 4.0625,7.0208 4.0625,6.8 L4.0625,4.4 C4.0625,4.1792 4.2445,4 4.46875,4 C4.693,4 4.875,4.1792 4.875,4.4 L4.875,6.8 C4.875,7.0208 4.693,7.2 4.46875,7.2 Z" id="Shape"></path>
            </g>
        </g>
    </g>
</svg>