<?xml version="1.0" encoding="UTF-8" standalone="no"?>
<svg width="16px" height="16px" viewBox="0 0 16 16" version="1.1" xmlns="http://www.w3.org/2000/svg" xmlns:xlink="http://www.w3.org/1999/xlink">
    <!-- Generator: Sketch 39.1 (31720) - http://www.bohemiancoding.com/sketch -->
    <title>icons/plus-circle-o</title>
    <desc>Created with Sketch.</desc>
    <defs></defs>
    <g id="Symbols" stroke="none" stroke-width="1" fill-rule="evenodd">
        <g id="Button-+-Icon/plus/flat/dense/accent" transform="translate(0.000000, -2.000000)">
            <path d="M8,16.4037559 C9.75274667,16.4037559 11.261339,15.7715243 12.5258228,14.5070435 C13.7903042,13.2425597 14.4225352,11.7339673 14.4225352,9.98122066 C14.4225352,8.22847399 13.7903042,6.71988162 12.5258228,5.45539786 C11.261339,4.19091651 9.75274667,3.55868545 8,3.55868545 C6.24725333,3.55868545 4.73866096,4.19091651 3.4741772,5.45539786 C2.20969633,6.71988162 1.57746479,8.22847399 1.57746479,9.98122066 C1.57746479,11.7339673 2.20969633,13.2425597 3.4741772,14.5070435 C4.73866096,15.7715243 6.24725333,16.4037559 8,16.4037559 L8,16.4037559 Z M8,1.98122066 C10.2034533,1.98122066 12.0876301,2.76368646 13.6525834,4.3286373 C15.2175342,5.89359054 16,7.77776736 16,9.98122066 C16,12.184674 15.2175342,14.0688508 13.6525834,15.6338028 C12.0876301,17.1987558 10.2034533,17.9812207 8,17.9812207 C5.7965467,17.9812207 3.91236988,17.1987558 2.34741784,15.6338028 C0.782464841,14.0688508 0,12.184674 0,9.98122066 C0,7.77776736 0.782464841,5.89359054 2.34741784,4.3286373 C3.91236988,2.76368646 5.7965467,1.98122066 8,1.98122066 L8,1.98122066 Z M8.78873239,5.96244131 L8.78873239,9.19248826 L12.0187793,9.19248826 L12.0187793,10.7699531 L8.78873239,10.7699531 L8.78873239,14 L7.21126761,14 L7.21126761,10.7699531 L3.98122066,10.7699531 L3.98122066,9.19248826 L7.21126761,9.19248826 L7.21126761,5.96244131 L8.78873239,5.96244131 Z" id="icons/plus-circle-o"></path>
        </g>
    </g>
</svg>