<?xml version="1.0" encoding="UTF-8" standalone="no"?>
<svg width="18px" height="16px" viewBox="0 0 18 16" version="1.1" xmlns="http://www.w3.org/2000/svg" xmlns:xlink="http://www.w3.org/1999/xlink">
    <!-- Generator: Sketch 39.1 (31720) - http://www.bohemiancoding.com/sketch -->
    <title>icon/profile</title>
    <desc>Created with Sketch.</desc>
    <defs></defs>
    <g id="Symbols" stroke="none" stroke-width="1" fill="none" fill-rule="evenodd">
        <g id="Input-+-Icon/account" transform="translate(0.000000, -16.000000)" fill="#B7B6B6">
            <g id="icon/profile" transform="translate(0.000000, 16.000000)">
                <path d="M0.186832386,15.991999 C0.321799753,16.0255032 0.459788778,15.9479935 0.495041448,15.8149769 C1.01375931,13.8932367 3.12186901,13.3951744 4.38190017,13.0971371 C4.69766338,13.0226278 4.94695012,12.9636205 5.1091124,12.8941118 C6.5443997,12.2755344 7.012253,11.2804101 7.15225646,10.5543193 C7.16937918,10.4668084 7.13765178,10.3767971 7.06916088,10.3177897 C6.32180426,9.67720965 5.69128507,8.71558945 5.29343351,7.60945118 C5.2823541,7.57794724 5.26472776,7.54894362 5.24156172,7.52394049 C4.71528971,6.95586948 4.41312396,6.35529441 4.41312396,5.87673459 C4.41312396,5.59719965 4.51938559,5.40967621 4.75860013,5.26815852 C4.83162352,5.22465308 4.877452,5.14814352 4.88097726,5.06413302 C4.99227498,2.5168146 6.81937053,0.511563945 9.06043315,0.49856232 C9.0629512,0.49856232 9.11180133,0.502062758 9.11431937,0.502062758 C11.3664614,0.533066633 13.1819739,2.58132267 13.2469396,5.16464558 C13.248954,5.23615452 13.281185,5.3031629 13.3365821,5.34916865 C13.4942119,5.48168521 13.5677389,5.64970621 13.5677389,5.87773472 C13.5677389,6.27828479 13.3526976,6.77084636 12.9629038,7.26390799 C12.9442702,7.28741093 12.9301691,7.3144143 12.9206006,7.34291786 C12.5177129,8.61107638 11.7945295,9.73071634 10.937386,10.415802 C10.8648663,10.4738092 10.8306208,10.5668209 10.8477435,10.6573322 C10.987747,11.3829229 11.4556003,12.3775472 12.8908876,12.9971246 C13.060604,13.0701338 13.3239918,13.1271409 13.657885,13.1986498 C14.9053259,13.4666833 16.9927876,13.9162395 17.5049586,15.8149769 C17.5351751,15.9264908 17.6369043,16 17.7476984,16 C17.7693536,16 17.7910088,15.9969996 17.8131676,15.9914989 C17.9476314,15.9554944 18.0272017,15.8184773 17.9914454,15.6849606 C17.3997042,13.4911864 15.0347536,12.9826228 13.7646502,12.7095887 C13.4700386,12.6460808 13.2157158,12.5915739 13.0918278,12.5375672 C12.155114,12.1335167 11.5779774,11.5179397 11.3740156,10.7048381 C12.2437493,9.96324541 12.9714651,8.81910239 13.3874466,7.53594199 C13.8291122,6.96587073 14.0718521,6.37879735 14.0718521,5.87723465 C14.0718521,5.54269284 13.9630724,5.26365796 13.7475275,5.0456307 C13.6276684,2.24328041 11.6137337,0.0365045631 9.11431937,0.00100012502 L9.03928155,0 C6.58519207,0.0130016252 4.56269601,2.16177022 4.38592905,4.91561445 C4.07066945,5.14564321 3.91052161,5.46818352 3.91052161,5.87773472 C3.91052161,6.46930866 4.24743641,7.17689711 4.83716323,7.82597825 C5.24458338,8.9376172 5.87610979,9.91423928 6.62799889,10.5978247 C6.42504423,11.4139267 5.84740404,12.0315039 4.90867579,12.4360545 C4.78730588,12.4885611 4.54557328,12.5460683 4.26556636,12.6120765 C2.98589442,12.9141143 0.604828336,13.4766846 0.00855459591,15.6859607 C-0.0272016841,15.8194774 0.0523686292,15.9559945 0.186832386,15.991999 L0.186832386,15.991999 Z" id="Shape"></path>
            </g>
        </g>
    </g>
</svg>