<svg xmlns="http://www.w3.org/2000/svg" viewBox="0 0 500 500"><title>prosecuter-avatar</title><g id="Layer_4" data-name="Layer 4"><path d="M182.37,347.46h-1.79v-44c0-3.67-26.29-33.79-42.86-51.92l1.33-1.21c7.24,7.91,43.33,47.67,43.33,53.13Z"/><path d="M318.85,347.46h-1.79v-44c0-5.46,36.1-45.21,43.33-53.13l1.33,1.21c-16.57,18.13-42.86,48.25-42.86,51.92Z"/><path d="M244.69,351.06l-6,0c0-2.05.22-50.33.51-55-.57-7.45-44.25-64.28-51.9-67.53-3.67.19-23,4.11-50.92,10.34-3.58.8-4.7,2-4.87,2.43v10.34L86.92,264.15l-1.63-5.78L125.5,247v-5.52c-.05-1.66.59-6.56,9.57-8.56,17.57-3.92,47.74-10.5,52.48-10.5h0c1.75,0,4.11.7,11.94,9,13.14,14,46.21,56.38,45.7,64.87C245,300,244.77,333.73,244.69,351.06ZM131.48,241.31Zm55.67-12.9Z"/><path d="M262.2,351.09l-6-.08c.23-17.32.61-51,.39-54.65-.52-8.61,32.88-51.79,45.65-65.37,7.39-7.87,9.68-8.53,11.38-8.53h0c4.18,0,26.35,4.87,47.49,9.64l3.81.86c4.17.93,6.62,2.59,7.49,5.06a5.64,5.64,0,0,1-.29,4.31V247l42.55,11.37-1.55,5.8-47-12.56V240.27l.41-.4a8.53,8.53,0,0,0-2.91-1.06l-3.82-.86c-10.22-2.31-40.95-9.23-45.91-9.48-7.6,3.26-50.77,60.08-51.31,67.62C262.87,300.73,262.23,349,262.2,351.09ZM314,228.4"/><path d="M135.17,149.63a52.81,52.81,0,0,1,8.74-.68c4.5,0,7.8,1,9.89,2.93a9.48,9.48,0,0,1,3.09,7.38,10.38,10.38,0,0,1-2.72,7.54c-2.41,2.56-6.33,3.87-10.78,3.87a15.7,15.7,0,0,1-3.66-.31v14.13h-4.55Zm4.55,17a15.25,15.25,0,0,0,3.77.37c5.5,0,8.84-2.67,8.84-7.54,0-4.66-3.3-6.91-8.32-6.91a19.11,19.11,0,0,0-4.29.37Z"/><path d="M162,167.06c0-3-.05-5.55-.21-7.9h4l.16,5h.21c1.15-3.4,3.93-5.55,7-5.55a5,5,0,0,1,1.31.16v4.34a6.92,6.92,0,0,0-1.57-.16c-3.24,0-5.55,2.46-6.18,5.91a13,13,0,0,0-.21,2.15v13.5H162Z"/><path d="M201.54,171.61c0,9.37-6.49,13.45-12.61,13.45-6.86,0-12.14-5-12.14-13,0-8.48,5.55-13.45,12.56-13.45C196.62,158.58,201.54,163.87,201.54,171.61Zm-20.1.26c0,5.55,3.19,9.73,7.69,9.73s7.69-4.13,7.69-9.84c0-4.29-2.15-9.73-7.59-9.73S181.44,167.06,181.44,171.88Z"/><path d="M206.72,179.78a12.07,12.07,0,0,0,6.07,1.83c3.35,0,4.92-1.67,4.92-3.77s-1.31-3.4-4.71-4.66c-4.55-1.62-6.7-4.13-6.7-7.17,0-4.08,3.3-7.43,8.74-7.43a12.65,12.65,0,0,1,6.23,1.57l-1.15,3.35a9.86,9.86,0,0,0-5.18-1.47c-2.72,0-4.24,1.57-4.24,3.45,0,2.09,1.52,3,4.81,4.29,4.4,1.67,6.65,3.87,6.65,7.64,0,4.45-3.45,7.59-9.47,7.59a14.44,14.44,0,0,1-7.12-1.73Z"/><path d="M230.64,172.66c.1,6.23,4.08,8.79,8.69,8.79a16.65,16.65,0,0,0,7-1.31l.79,3.3A20.52,20.52,0,0,1,238.7,185c-7.8,0-12.46-5.13-12.46-12.77s4.5-13.66,11.88-13.66c8.27,0,10.47,7.27,10.47,11.93a17.28,17.28,0,0,1-.16,2.15Zm13.5-3.3c.05-2.93-1.2-7.48-6.39-7.48-4.66,0-6.7,4.29-7.07,7.48Z"/><path d="M272.35,183.55a17,17,0,0,1-7.27,1.47c-7.64,0-12.61-5.18-12.61-12.93s5.34-13.45,13.61-13.45a15.4,15.4,0,0,1,6.39,1.31l-1,3.56a10.69,10.69,0,0,0-5.34-1.2c-5.81,0-8.95,4.29-8.95,9.58,0,5.86,3.77,9.47,8.79,9.47a13.09,13.09,0,0,0,5.65-1.26Z"/><path d="M298.93,177.58c0,2.62.05,4.92.21,6.91h-4.08l-.26-4.13h-.1a9.53,9.53,0,0,1-8.37,4.71c-4,0-8.74-2.2-8.74-11.1V159.16h4.61v14c0,4.81,1.47,8.06,5.65,8.06a6.66,6.66,0,0,0,6.07-4.19,6.73,6.73,0,0,0,.42-2.36V159.16h4.61Z"/><path d="M312.12,151.88v7.27h6.59v3.51h-6.59v13.66c0,3.14.89,4.92,3.45,4.92a10.23,10.23,0,0,0,2.67-.31l.21,3.45a11.27,11.27,0,0,1-4.08.63,6.38,6.38,0,0,1-5-1.94c-1.31-1.36-1.78-3.61-1.78-6.59V162.66H303.7v-3.51h3.92v-6.07Z"/><path d="M346.51,171.61c0,9.37-6.49,13.45-12.61,13.45-6.86,0-12.14-5-12.14-13,0-8.48,5.55-13.45,12.56-13.45C341.59,158.58,346.51,163.87,346.51,171.61Zm-20.1.26c0,5.55,3.19,9.73,7.69,9.73s7.69-4.13,7.69-9.84c0-4.29-2.15-9.73-7.59-9.73S326.41,167.06,326.41,171.88Z"/><path d="M352.32,167.06c0-3-.05-5.55-.21-7.9h4l.16,5h.21c1.15-3.4,3.93-5.55,7-5.55a5,5,0,0,1,1.31.16v4.34a6.92,6.92,0,0,0-1.57-.16c-3.24,0-5.55,2.46-6.18,5.91a13,13,0,0,0-.21,2.15v13.5h-4.55Z"/></g></svg>