<?xml version="1.0" encoding="UTF-8" standalone="no"?>
<svg width="56px" height="57px" viewBox="0 0 56 57" version="1.1" xmlns="http://www.w3.org/2000/svg" xmlns:xlink="http://www.w3.org/1999/xlink">
    <!-- Generator: Sketch 39.1 (31720) - http://www.bohemiancoding.com/sketch -->
    <title>icon/user</title>
    <desc>Created with Sketch.</desc>
    <defs></defs>
    <g id="Symbols" stroke="none" stroke-width="1" fill-rule="evenodd">
        <g id="Button-+-Icon/circle-button/user" transform="translate(-62.000000, -44.000000)">
            <path d="M90,79.0818713 C95.8947683,79.0818713 102.035051,80.3645137 108.421058,82.9298298 C114.807054,85.4951354 118,88.8518344 118,93 L118,100.040936 L62,100.040936 L62,93 C62,88.8518344 65.192951,85.4951354 71.5789474,82.9298298 C77.964949,80.3645137 84.1052317,79.0818713 90,79.0818713 L90,79.0818713 Z M90,72.0409357 C86.1793198,72.0409357 82.9044974,70.6764272 80.1754386,67.9473684 C77.4463798,65.2183096 76.0818713,61.9434873 76.0818713,58.122807 C76.0818713,54.3021268 77.4463798,51.0000157 80.1754386,48.2163795 C82.9044974,45.4327328 86.1793198,44.0409357 90,44.0409357 C93.8206802,44.0409357 97.0955026,45.4327328 99.8245614,48.2163795 C102.55362,51.0000157 103.918129,54.3021268 103.918129,58.122807 C103.918129,61.9434873 102.55362,65.2183096 99.8245614,67.9473684 C97.0955026,70.6764272 93.8206802,72.0409357 90,72.0409357 L90,72.0409357 Z" id="icon/user"></path>
        </g>
    </g>
</svg>